<mxfile host="app.diagrams.net" agent="Mozilla/5.0 (Windows NT 10.0; Win64; x64; rv:137.0) Gecko/20100101 Firefox/137.0" version="26.2.8">
  <diagram name="Página-1" id="xiV9Tw5Vra2QEd6lNLKA">
    <mxGraphModel dx="2997" dy="1968" grid="0" gridSize="10" guides="1" tooltips="1" connect="1" arrows="1" fold="1" page="0" pageScale="1" pageWidth="827" pageHeight="1169" math="0" shadow="0">
      <root>
        <mxCell id="0" />
        <mxCell id="1" parent="0" />
        <mxCell id="M22sSa8-nU_xc1yX0LfK-46" value="&lt;h1 style=&quot;margin-top: 0px;&quot;&gt;Esquema relacional&lt;/h1&gt;&lt;div&gt;CENTRO_EDUCATIVO(&lt;u&gt;cod_centro&lt;/u&gt;, nombre, dirección)&lt;/div&gt;&lt;div&gt;&lt;br&gt;&lt;/div&gt;&lt;div&gt;&lt;span style=&quot;white-space: pre;&quot;&gt;&#x9;&lt;/span&gt;&lt;span style=&quot;white-space: pre;&quot;&gt;&#x9;&lt;/span&gt;&lt;i&gt;&lt;span style=&quot;white-space: pre;&quot;&gt;&#x9;&lt;/span&gt;PK&lt;/i&gt;&lt;/div&gt;&lt;div&gt;ESTUDIANTE(&lt;u&gt;dni,&lt;/u&gt; nombre, edad, promedio)&lt;/div&gt;&lt;div&gt;&lt;br&gt;&lt;/div&gt;&lt;div&gt;&lt;span style=&quot;white-space: pre;&quot;&gt;&#x9;&lt;/span&gt;&lt;span style=&quot;white-space: pre;&quot;&gt;&#x9;&lt;/span&gt;&lt;span style=&quot;white-space: pre;&quot;&gt;&#x9;&lt;i&gt;PK&lt;span style=&quot;white-space: pre;&quot;&gt;&#x9;&lt;/span&gt;&lt;span style=&quot;white-space: pre;&quot;&gt;&#x9;&lt;/span&gt;&lt;span style=&quot;white-space: pre;&quot;&gt;&#x9;&lt;/span&gt;&lt;span style=&quot;white-space: pre;&quot;&gt;&#x9;&lt;/span&gt;&lt;span style=&quot;white-space: pre;&quot;&gt;&#x9;&lt;/span&gt;&lt;span style=&quot;white-space: pre;&quot;&gt;&#x9;&lt;span style=&quot;white-space: pre;&quot;&gt;&#x9;&lt;/span&gt;&lt;/span&gt;FK&lt;/i&gt;&lt;/span&gt;&lt;/div&gt;&lt;div&gt;ASIGNATURA(&lt;u&gt;cod_asig&lt;/u&gt;, descripción, profesor, centro)&lt;/div&gt;&lt;div&gt;&lt;br&gt;&lt;/div&gt;&lt;div&gt;&lt;span style=&quot;white-space: pre;&quot;&gt;&#x9;&lt;/span&gt;&lt;span style=&quot;white-space: pre;&quot;&gt;&#x9;&lt;/span&gt;&lt;i&gt;FK&lt;span style=&quot;white-space: pre;&quot;&gt;&#x9;&lt;/span&gt;&lt;span style=&quot;white-space: pre;&quot;&gt;&#x9;&lt;/span&gt;&lt;span style=&quot;white-space: pre;&quot;&gt;&#x9;&lt;/span&gt;FK&lt;/i&gt;&lt;/div&gt;&lt;div&gt;EXAMEN(&lt;u&gt;asignatura&lt;/u&gt;, estudiante, fecha_examen)&lt;/div&gt;&lt;div&gt;&lt;br&gt;&lt;/div&gt;&lt;div&gt;&lt;br&gt;&lt;/div&gt;&lt;p&gt;&lt;br&gt;&lt;/p&gt;" style="text;html=1;whiteSpace=wrap;overflow=hidden;rounded=0;container=1;" parent="1" vertex="1">
          <mxGeometry x="-325" y="171" width="494" height="273" as="geometry">
            <mxRectangle x="-169" y="172" width="358" height="297" as="alternateBounds" />
          </mxGeometry>
        </mxCell>
        <mxCell id="Vbakuehs30_94PQ9UM7p-7" value="" style="shape=image;verticalLabelPosition=bottom;labelBackgroundColor=default;verticalAlign=top;aspect=fixed;imageAspect=0;image=data:image/png,iVBORw0KGgoAAAANSUhEUgAAAwMAAAHsCAYAAACOr3FdAAAgAElEQVR4Xuy9v5IUubaHK96ExitiMJi3oDqOQ8QYd4jB2eY1u2mLGGMCC7rNa24Hgj7GROCc6OYtwICgvG7ehJv/UyktSSszK6syq76x9m4ypaVvScr1k5ZUD35l/xn+gwAEIAABCEAAAhCAAASOjsADxMDR+ZwGQwACEIAABCAAAQhAoCCAGKAjQAACEIAABCAAAQhA4EgJIAaO1PE0GwIQgAAEIAABCEAAAogB+gAEIAABCEAAAhCAAASOlABi4EgdT7MhAAEIQAACEIAABCCAGKAPQAACEIAABCAAAQhA4EgJIAaO1PE0GwIQgAAEIAABCEAAAogB+gAEIAABCEAAAhCAAASOlABi4EgdT7MhAAEIQAACEIAABCCAGKAPQAACEIAABCAAAQhA4EgJIAaO1PE0GwIQgAAEIAABCEAAAogB+gAEIAABCEAAAhCAAASOlABi4EgdT7MhAAEIQAACEIAABCCAGKAPQAACEIAABCAAAQhA4EgJIAaO1PE0GwIQgAAEIAABCEAAAogB+gAEIAABCEAAAhCAAASOlABi4EgdT7MhAAEIQAACEIAABCCAGKAPQAACEIAABCAAAQhA4EgJIAaO1PE0GwIQgAAEIAABCEAAAogB+gAEIAABCEAAAhCAAASOlABi4EgdT7MhAAEIQAACEIAABCCAGKAPQAACEIAABCAAAQhA4EgJIAaO1PE0GwIQgAAEIAABCEAAAogB+gAEIAABCEAAAhCAAASOlABi4EgdT7MhAAEIQAACEIAABCCAGKAPQAACEIAABCAAAQhA4EgJIAaO1PE0GwIQgAAEIAABCEAAAogB+gAEIAABCEAAAhCAAASOlABi4Egdv+9mby4emcfv7o159tH8uv1z3+ZQPwQgAAEIQAACEDhKAgsTA9fm9MELcyu4av3+l7n5a2POTx6bq5/GlP9/Gp/2CWT7PBuytinDfeDhmflxf2lW0osfTs2DlwKpZPDtMj4xZ9/uzOVvfVm2vjDGL2MbXPpaxPMQgAAEIAABCEAAAl0CiIEBPaJPINvn2Z2IgbySkCD4fm4ePbky2Xq989/afPx1Y3qt3ztlnbz6Ye7etrJlG1wGuI5XIAABCEAAAhCAAAQsAgsVA0NXq5fp+0GBc70zYO8eNLsFgeA+D+D/x5iberfB2l3ou9NS27x+dWY27zKB4exiDGrTMt2H1RCAAAQgAAEIQGC2BA5MDATShNyUGXtlvF7Bzv720bwwLz5bK+eB1W0xkO3zbFbF9fpBWVf9XyTlZ1DgLIkBU6cAacVUmzLUTwzUfshFx6X5UqRudet021T/f3sHwf1bIzDe/zCrv8t0sOK/wp+mk0LW2lu1Ief7z8Y8blKnIqlLjVMc0eT0o35MZjsHYBgEIAABCEAAAkdMYKFiwPFYE9wLYiCVOy+lxuTlvf0ipMyUAeR/3juHX8X0msCzxs6ld9oREATymYFEQC+Igaac2FkD26TUTkJo4FgCKz8cXAsfKdCvU5b6iAHdeK35hM+ZGIuDJ85cQSD5WMtRZzBPQQACEIAABCAAgZ0TOHAxIO0U2KvWWR68FeTZwWoTHHaExqkx/+eLgT7PGinAbmyQA/xRYkDoUroV7aG7Au2uR1NPTJhUfPuJgZqTLazqVXzXbksM1L50eZv6rITN3ynHVAeym/6Q/fvJF3MZOsC986FMhRCAAAQgAAEIQKA/gYWKgdCquBv8R1aF6xtumkDQTgmJ30rUTXF5Gr3BKJQO0z3E26c+9xhv4Pafr/JtQu5BXrnLtPbonrdLUTDPbiYakyZks5NERC3OSjEipUY5f6tZOSv93R2Nr92brNgV6D/b8AYEIAABCEAAArMjgBg4dDFQB63WDkh8Z8BabU9eQyr051BaVvVoLS6WJwbKm5C6uzQDblma3RSAQRCAAAQgAAEIHDOBAxcDdWAbya9vguRuYOen/uTpL4/Ml7eaNKHws6PShPoE50JqTtOm4Kp2ekcgdZhZOh9QDDDHHuP86Jh/nsG3Rap7KzsD2jSh/33R/EBaZ/ehTiFit+CY51LaDgEIQAACEFgkgYWKAZ916EfHkj/YFRADbdBu1xU4FCyuhocOEEfSaALBfrINUteTbhNKnE2Q21wVXtkWFxSx24q6OfiX3zSHsMu6Q7sJ9kq9dN5DnSb0m+JQt8bHhp2CRc6CGA0BCEAAAhA4YgIHLwY6q9K2o730GSGQcwLAWFDqBtLRZ4UbhWK5+VsTA1n7pR2PBkssxcc56Cv+cJl4nWldenel/yZbTX/8Lvt5M0sAddqZ++f/sutCsx9BM9UPlk22M1D9urJ3o5Ajzrr/bu02Rdt9xLMLTYcABCAAAQhAYPYEFiYGUjzjB3FTb/PvEIAABCAAAQhAAAIQOCYChyMGOvfAa39U65hcTVshAAEIQAACEIAABCDQJXCQYqD/dZh0CwhAAAIQgAAEIAABCBwfgcMRA8fnO1oMAQhAAAIQgAAEIACBUQQQA6Pw8TIEIAABCEAAAhCAAASWSwAxsFzfYTkEIAABCEAAAhCAAARGEUAMjMLHyxCAAAQgAAEIQAACEFguAcTAcn2H5RCAAAQgAAEIQAACEBhFADEwCh8vQwACEIAABCAAAQhAYLkEEAPL9R2WQwACEIAABCAAAQhAYBQBxMAofLwMAQhAAAIQgAAEIACB5RJADCzXd1gOAQhAAAIQgAAEIACBUQQQA6Pw8TIEIAABCEAAAhCAAASWSwAxsFzfYTkEIAABCEAAAhCAAARGEUAMjMLHyxCAAAQgAAEIQAACEFguAcTAcn2H5RCAAAQgAAEIQAACEBhFADEwCh8vQwACEIAABCAAAQhAYLkEEAPL9R2WQwACEIAABCAAAQhAYBQBxMAofLwMAQhAAAIQgAAEIACB5RJADCzXd1gOAQhAAAIQgAAEIACBUQQQA6Pw8TIEIAABCEAAAhCAAASWSwAxsFzfYTkEIAABCEAAAhCAAARGEUAMjMLHyxCAAAQgAAEIQAACEFguAcTAcn2H5RCAAAQgAAEIQAACEBhFADEwCh8vQwACEIAABCAAAQhAYLkEEAPL9R2WQwACEIAABCAAAQhAYBQBxMAofLwMAQhAAAIQgAAEIACB5RJADCzXd1gOAQhAAAIQgAAEIACBUQQQA6Pw8TIEIAABCEAAAhCAAASWSwAxsFzfYTkEIAABCEAAAhCAAARGEUAMjMLHyxCAAAQgAAEIQAACEFguAcTAcn2H5RCAAAQgAAEIQAACEBhFADEwCh8vQwACEIAABCAAAQhAYLkEEAPL9R2WQwACEIAABCAAAQhAYBQBxMAofLwMAQhAAAIQgAAEIACB5RJADCzXd1gOAQhAAAIQgAAEIACBUQQQA6Pw8TIEIAABCEAAAhCAAASWSwAxsFzfYTkEIAABCEAAAhCAAARGEUAMjMLHyxCAAAQgAAEIQAACEFguAcTAcn2H5RCAAAQgAAEIQAACEBhFADEwCh8vQwACEIAABCAAAQhAYLkEEAPL9R2WQwACEIAABCAAAQhAYBQBxMAofLwMAQhAAAIQgAAEIACB5RJADCzXd1gOAQhAAAIQgAAEIACBUQQQA6Pw8TIEIAABCEAAAhCAAASWSwAxsFzfYTkEIAABCEAAAhCAAARGEUAMjMLHyxCAAAQgAAEIQAACEFguAcTAcn2H5RCAAAQgAAEIQAACEBhFADEwCh8vQwACEIAABCAAAQhAYLkEEAPL9R2WQwACEIAABCAAAQhAYBQBxMAofLwMAQhAAAIQgAAEIACB5RJADCzXd1gOAQhAAAIQgAAEIACBUQQQA6PwTfjy93Pz6OJ3c3f754SV7LDovD1Prszq/S9z89cO66Wq0QSu1w/Mi82Z+XF/aVbB0q7N6YMXZvPqh7l7G34qbcy2yknX1DwxQd9MMdtcPDKP392b9eLGw8acnzw2V6uP5tehzE09uso8H53AJx9OzYOXG3P27c5c/raHVo+ufwIme8BwHFXiqzn4GTEwBy80NlSD4qdr1Mn+JuVt8Zkg4NqWacsupwyeb4VG9A80s7JOvpjLTtBf98m1+fjrxoSl6baCeH05RcD92W9473ZvvW8mmBX1fTLP9xVojerwfLhH4Zvk5e37ZO9iFTEwSU9xC839fP7kbs8LdNvvvzuBd2CVIAZm49A6gPAD/3kM2JGgth5wjbTnYF7XB8/JJo/6AG/LDn05/uq7Vrg4JHbcNzcfro3568/ILkvSU3t8gA/3HuEHqj5An4yai3JMB8hk6x1vLozmYsfWAS+qQMTAXNxVTH635qRHmsXm4tT89+WNt42bB0mvf4ula+QB12uzSqxMhsqPIStWlL6/8VMIhgZcxXsb8ya4Kp1oy1bTrXTcjFintOpukywnxM0/fdOo9MFzXVtQXPb+AOd1fzQvCt+E7Qj2iab5unLcfiem4lTjSNodGNI307ZnVmV1npob9epaUea/zxNpV1m5W+27PSe64Lgb+uFOjZ1E/98qi5QtFaudjmPLP1m9p+//Y27cdLshPsnHw9+reF/r2X/z/v7gpUnsFObtSc15Wcge+l70notqAXBqzP/lqU2xfqr0f88hIz4+st/Gv8HKdgRt0IzlrI61MTdeSmD57qc/hqaF5u/PzFfb8PeCy0AMJJzXSUV4mMqbHt4TynpSqRjZ9Jo/Z9Zm/fm2Sg1p35HSJmxxUW/9dq3s7kTEyk+KgCwHuvPfMyuvuK8YqJ7vlmjzEVKqhPrs90+eZbPa502bniHaJE2QUipOiltJYv3+h1n9neVY/2zJdARfFby6bPWpLgoxUKWlrJ4Zc/vZJqLrO+EVeMvqhyfm5GdWdiNmA+lLto/q1TuLjfHKCfc6SQyUfdx00urEfh/tmxrbq7HopCnVvpVsk9Oa/D79aZX301vT8ZTmbEHVn1sfVOwiAsmjqx136jMDyrFjc7TnWcEebxwHVoFLv6+soFVpS2d+3dE4rgLs9bNsXq9YNHNAb58E0k2d71f0eyEE48O+HyW/7iKXYnz1FAN+W7L56OG9ue/007T/o19w0SZ3/q2C5KFjuDBA9l/7TUi1Q2FDrE8J34vWfwrf9Ympyt6xfV8ND8WO9k3EQMT14sd7EkFQDX6TFhu1Td4OgjRRJSdUP5AMlh8bIlJQ7f6tlxiQAnLnb4m8az8YqycxK4hXioFgYGcdqvW5WRO6FXimRZ9mtcZ2hjw5d/pHM/FbgacUOAb6i9d+4TlNv/GCs4Hl1K137WqClZQIHdA3ZdtvnQPA1+b84qm5zFZ0ZWb+88V5j8bets+0H3793JBzkfpX6jBz25sU465n+kV67JT91wTEjmocK8VA2pZW4LXjZ0fjuF4U8L4vW/KJO9ZEgdj233L13zpALApNv29K80B6zqt2CGzhlvx2WXOgMI9Lc4HG/9sSA/niz9AxLC1o5LuE518vzWV2+Ua6Hdp5JPCtkb4XFRjRlwMWG+yLRCbx1dGG9MMbjhgIsROVc71K1DeVI+Ug/Qc/9GEvV/TdGz7iH1opr1IfOFghhJj24Gwj9hEDgUC/k14RTasKrJYHPnDdG47cCTLA0NkqD69S2yuTGTPFFns/HyhWapSixwsA7A+AK3y824UUOxQOf7mdinI6HyZ7bMnnbfyUnAF907HdX3XujnG3bdFx2+wIyh/nVF2dmr0Ps55nkZYkHGzupjX1EauKsVPPs50do0buyTdUeYGihpvCllpMOX1b5L/tcRwKfrflE2cOSPYpZX93A1exn2sCe1Gs6G4zktsybB7fmhhwds6SvK2K4/O/ph9rxkNeYVwM+Df/heaS6hskjuEu0Z35KhVy8e8eAcTAQYiBwLZw1bZkWoq7cp28RlIIfIRbXYqn6rL7iIFA6kwlxZptf3vbWloJ9yazIWIgIgrz7c366r1RYkCqQ70DpQj2tioGQsGgZIfUL2tmynLcvmBxEQPuz0L61qC+GbNdXp2zR0XXtnAA3f04aj/isS+ZU4YiaG1KU427HmJAOXZKEVrdh5Xa1cmNHSIGlLbsbRyHAuYRPqlX6e3eUq9WJxccVMLd94VeDMTHV2hhQur5clukneSrTupdW5bytj7RR3KakHv1rl4MJMaXqh9r55GeYiD4DdfPCTvzFcF+bwKIgQgyaTI16iCtny/ErUGhCNVgClRdB8/e9qW1ipH8SKhtch7sLQZ0q0LF+kZ1Z3vjm1BdI8RA6vcRBgcRwg5HPx/MVQxUq0X2eOnwV4qB1PjsCFd/hUrF0usvKdvnLAa6KRdG3DEMQNWs4PZJE+oz5psgPxcFVTqbdhxr0oSUtuxtHEfFQGoudMdSHWj7aYH1PJYcF5OKgfT4mkoMpObx6Fd7RmIg3o7DEAOjfNUv/OLpjABiINENOoJgIiFQmBDdLm+NjKYbRFf0pQnC/1vyIyHwUq16KD/GNotek0FnopYDZE9wiTa5AaUi2M6MHhpESO/184HCvq3uDAQCYTenWPpwagIMMTdZHqQa5oP6psL2VLm6NCE3PVD7EU9MWo2/PxrzMpyP75WiGqP6VcDiNpm+P0TXsUE5jgNioJy764BYZ4umTxXcnB2X0eM4miaU+rFGeRW8M39OlCbUZRyYGzQpQJpnootcTjpm1ffa8zg6//cWA958NX4Ma9KE4j/uqLWh585AaDz3mLPleXPYN5cIfrsEEAPb5TmqtEZ4CLdp1DeEBCcKYYW5XDU/N1/fXmZXP7qBh7WiPjJNKChkPmSHnp5mh57yX7BUBRo1PmFlq/in9oBbPqnYP5biTjIly3b7t00psreE3RUqK//eO/TrbiVnNl58zQ6Llj/DNSqIsG+RqtMC1MJT8ZHTioGAj7y2uX3N2rpu0rWqZ/wbMCyOmnIiI0ocC+6HKSSyY31TY7tQbm5PfaVviFmTNleMTfdXiLUf8dQ0Y6dgpG8oa0tLj7u+97e747Csyxo7GetH3y7bX62WBGNyHNcHf520vSI9zL0xa6bjOLgrM8AnoQD1p3WoNdF/QweI772dvu512OKYFAN9+zB9Pe+6c0NqR6TquV5bhs/j0ZHl1iPNe5pdqtTw9b7lZR+or51OjqkeNsTmUGkxro5RvOyCn8p5Zle+SjHm3z0CiIGZdQrx+jZtsC7ml/q35zRXFmYT+9nqylxZB4/7rUpb8KyJ0UbqXo+nX+2XckqzkmsWQlu713G672eT1XtjXtg3ZOSGOuXkweyb74+9w9idHaK6gZH89SLk8a42rOuz7+h2DwCvzdmrjbnS3ENfypD0LxBrxYBzpV3smky3n9ZXqNr3TrvM1q/OzOZd95d3NeWEhqjcV8MpEs7Ft+1tHwIfje1u3/ECT3enTttnRxw+bFjVdSkO9XX5JsZdnzShquDo2BHmje5Nacpx7I6DfGz+szGPnfvwZzuOoyla/X3ijquTbOyt3l11b23y+qMV0En2JH2l3BnIZy3n18O9uUGVsmb13C3N46lwID1fbUfQe3GA4lrYNoW5hw0dbon0vOB4VgqBGu6OfJXyJf/eJYAYoEccD4G+H5jjIUNLD42At7txQA1kHB+QM2kKBCAwBwKIgTl4ARt2Q4AgYjecqWXvBAbv8O3dcoUBjGMFJB6BAAQgoCeAGNCz4smlEyCIWLoHsV9DoMeBPk1xs3uGcTw7l2AQBCCwbAKIgWX7D+shAAEIQAACEIAABCAwmABiYDA6XoQABCAAAQhAAAIQgMCyCSAGlu0/rIcABCAAAQhAAAIQgMBgAoiBweh4EQIQgAAEIAABCEAAAssmgBhYtv+wHgIQgAAEIAABCEAAAoMJIAYGo+NFCEAAAhCAAAQgAAEILJsAYmDZ/sN6CEAAAhCAAAQgAAEIDCaAGBiMjhchAAEIQAACEIAABCCwbAKIgWX7D+shAAEIQAACEIAABCAwmABiYDA6XoQABCAAAQhAAAIQgMCyCSAGlu0/rIcABCAAAQhAAAIQgMBgAoiBweh4EQIQgAAEIAABCEAAAssmgBhYtv+wHgIQgAAEIAABCEAAAoMJIAYGo+NFCEAAAhCAAAQgAAEILJsAYmDZ/sN6CEAAAhCAAAQgAAEIDCaAGBiMjhchAAEIQAACEIAABCCwbAKIgWX7D+shAAEIQAACEIAABCAwmABiYDA6XoQABCAAAQhAAAIQgMCyCSAGlu2/yay/Xj8wLz5nxT/7aH7d/mnMh1Pz4H9flP+b/2ZLoPFbbmHhu6fm/OSxuVpVflRaXpSzOTM/7i/NSvnO8Mc2g2wcXt923vQY5WPk5cacfbszl79VdXw/N4+eXJn74v+eFP/2+8Uu2WbVSnZtB8ERlzLfPrvbsbvELjDSd9WYXr3/ZW7+WmL792Mz/XI/3LW1Iga0pI7puWKy25g3vy7NlzyQ/Fk2/uTVD3P3dvrQ8JhQb7Wt4kdqyIeveufn2nz8dWOml39DbNwquUGFuR+3zcUj8/jdvVlbQYL/Adw1W2MkuwY1mJcsAvPtswRdqY6q910+ds6f3HWD/kJc3/I9TGF2/p1+2RPYjh9HDOwYONVBYDIC4gqw/sM3mV3Jgpdgo9+I9Mdtme1KuosHMgLz9W26Xx67A7W+0z537Dx17adf6jjt6ynEwL7IR+rNB83r39Kr8NfrR+bLWysloVNmOZFt/gltZV6b0wevzcpOaRBtyp47+WIuI+kixcrj9zfJFKK4vSlHaO1NlVOulJ6am8guh66u6/WpMbfuyrnu3bSVxvQuv68YaHaAeqz+53X8vUqmD8m2h1od+egm69sG76yMtTE3YgpcuPz0x61/MLG5ODX/fXnTphnZa9GacZbxyvu2On2h6DNGsQO0jXlgvK/GzSFO/xvS/5siYr7N2/nCmEgaiXbODM8TY/qlYvbJ+sWjb5fdOTLndfG7uUukiqZ9tAs+1Y7Yv8+FucrxXd6u/8nGv/eN6z9+jbJPiTsOwkr6+DhA4etc2mrmluo5b6dEV0X2PQulR6bmhdS/Kw3gsSgBxMCMOkgn37uyq5OaU324189uzW2ez1//97Cb2+2V0/n3ciK+7bS7zGWu85yL983arD9n9VjPddOEpHKyh+szBvl7Gns7OdV1Za09dYpD101de5MuLOr4ZFbPstj9c5m9Xf7XLSddV/lx+LTKIseMTVFSxdZUKSKj7KxWG6XyVybuN7/v1G0TPmgi825KUHfirlNbHNKdfhVmk04sc23U11ensBWW2X0v2Snq/tkdCX38GT0zYOyzApUxlX3h1KGu0WW6kWKcZa9F5w5BJKb7elVmch5o05A61nd8Ifizp6/89mXzUz4PmvYsjBhsJM9x1Fb3TYnTjisnvbJKMQnNQaluq/abdd5Hx0UYv80c+cZsnnS/GXYqnGqez8sS553t8smrkcaCyfpxm/JY+S6b/09+3lfneaovQp0KG5sjpXTM1Jwa/Ab5/W5bcUCqL+X/LvYne2z2sDtVXyitMvzNHD9vpGzi31sCiIG59Abpo+X+rf6Q2EFY9bd2co6vukgfBvdv9WRkB//l3+IfzHJiWbWTrspe2wGalZiyfZs+5xeaidq2vwqyHCHV7Q5uXe3k1PkYin1ogJ116sHP7NPlrCpq/CYfFA0E2p0DxT735Kq311/7sHGBKfzu1ld9pJ4nd7ZCA7zyvxOUXl+cm6dvpUPTvj+jYqA4QCy3S/4oGu/g8fnXS3MpHFAMjbNun7k25xdPzWV+xkdkd2VMZwzVAVK7sKCaByKBUXPAcqyvhDqaIMbyX5+gt3ugXtH/vG4UGFemuzBT2tn6tlxo6XeYP/6JSvfLXlw6c08rRNtvgd9Pyv6Vierod0l4rwlGt8jH+x4W8qBcAGv6ijxXlf3dXiAK9AuvP0rPCbsPxUUC1jeoKqczDrcWBygCG/XYVditqC75Tan81Hzbx84bCpt4BDEwuz4gfyScwF5MA3E+BnXgK668BYSCkyqg+3gICEXx4tyu4g54qxj3wyk7acCHO3D7gxdUaT/4qpt5BtgZzEPW+U0lBgITbMHC2lJPTtyqD6J2mClYufWNPcTX+0YQhWAKCSSnv4jiu8/NTU49yX6sfF4MXF27pLK8VIxqlfmPKtVxpK/k9in8kXc/pYh0+3+658rBnnfDTCfgM+WtWVs9mJ/moJvPdcK1kLjOXCHPO/J3aWo+oXmru5g1JsjPALhzh2ZOFeebgO88sTggDkh3YN+PxTvO2FXaragukiZUv+3wGDlvaGziGcTAzPqAsB1mWdisymjEQPMBrNIfvC2/+ppDF0G7IqL7eLQTRydVw0690dqbFyWtktQmelvr2T/0STMIBX7BVRgndcRdUQqJgbF2hsRAYHu9xGOtZIm85QlWHgDtqlVwJ8JOT8sKaVejFQF9cNRFApFgfd0t7t43XYmsHAMT/tzOzoCGmzQ/JMar3RSnrUGhp3lOesbxUVO1NUbtdIS+vpLtTQfBhR2h3VWxL/ZJFZLGlbvwkVfirtzbaV996rMM7tkvdfP5xGIgON62ySc8lrqCMvRcYCfYne8DCxPROVUVVG85DkhEOXI6VfVSPXZVduvCqXA/DH1vR87xOrN4qiJAmtAsuoImIBA+bIXtkXSU5qNRfXSUq6G6j4eQZjNiZyAUoPjXIipZ2X6N7gy0W9TpulIfG/tayQF2JsRA8l5rtRiQgpbuQOj6o/5I+VvcrU1D2lvX6b6rqa+1twk0oylfUqAf5pDuC1Vusr1yPmhnIMUtPc6SuziaIF8InDXzQLJuB/sQX21fDKT7f/qzMFQM1CW3oiCdcuj39ZgIV+08DeqrpR2DdgbUYmAMn9T8XKewxncG2rQd5Q6CZmFBFVSn5oKKTZ9FtkhHVo1dld3p0VJEKs4BYs0c23wh6jN5feZ4nVk8hRiYVx9QDcwhk0BnMOvy2DVBgLg1PFQMBCdTaXJUTpgKMSAGvNFc+lDdW7IzkSaUPCehEQNDBKEmt3TUVYsOP1V9/VUokOwAACAASURBVIJ7b7RHOej8uZ2dAUFU2MYGd6/agHZbaULdVIqAXVKakH1OSDOtaoInqxy5ff6ZD2ne8lIPlf0/3QxFn20E1q13BqgKq3v+2N6wfqniojzfMlgMRHdnt8UnNJYqbs15jsA8rhRIcprQlYku1iiD6sniAKFDJ+eN/B2l3enx4vpG15c75facNzQ28UxLgJ2BufSGahXf3ULfZAcav2YHGosfftKIgeyZzpVw4ra+extPNjAvvmaHDcufl9KLAXsSr1e6Umkr8rawHOi6k7i1bTggTSi//adZUfN4a+pKiAHr8KB0wDHd1cJCpwzU4n5TnRloDim7KQrWgVO3D3gpXO129iRpQor6cr72FXeqD1vHAcLuQ94nimtT/2P+m+d2J/y5LTFQH8B0D2kW1wJnF4XmhzPdCwKynzxqDxwL54Ry25prCd15o35eOPDpXRqQODPQ3BDjjscP5+b8aXYAOjtIPdpXXvusVBshFalm1aYmCYdCvbz9bv/vP1br/mTX5e7qZP+/c02zbnGmtUUzR6VXYKNcEudbBouBZt6Zkk/9jczSTiL9ojnY/zN7vnlOvlBC/BaGzkvF+pQ2qN5WHJDuwO3tTpGxO7kYiMyxo+cNDQOeaQggBubUGaRc0GROeOAAsdUuV2CIuYJWYKASA3XAaOULr1+dmc27T6a54UUjXgL58E3w4/57ZufZ6ioL1HrcyFFPxIV91pkJdxJM1hXZlUi+q+lo8V2PlN90YqD4nFcHGR2bIjez2Dnf+VsnGctVxrK9S33Ajk1Tvf9usj5hrPRJtyirtvO3y7/06XdbEwO5R9yrad3xGBtnueEeD0vsSeNQGHfiPJESA3ndqTG8DV85ZZy8+mie//vCiLcC5UFe6U3z8dvKvM6uFe7eOpXu/+nRGlnZbOrPShGu3+2cseqb9qCYZ/z5222vxEUev8FdBfvQuGaeL4AK3LfNRxwL7u1spR2f/qj6kN1f3F9c7/S7WLptok9pxUDA/vTZsL7CsurhqbHbx+7EoPH6Uqovb2PeSA9knqgIIAboCodPYGupAYePqm6harv6eHDQ0tkRGCM+Z9cYDIIABCCwVwKIgb3ip/KdEEAM9MRMoNUTGI/vnAB9dOfIqRACEDhYAoiBg3UtDWsIIAbUnUHOJ1a/zoMQ2BEBxMCOQFMNBCBwBAQQA0fgZJoIAQhAAAIQgAAEIAABiQBigH4BAQhAAAIQgAAEIACBIyWAGDhSx9NsCEAAAhCAAAQgAAEIIAboAxCAAAQgAAEIQAACEDhSAoiBI3U8zYYABCAAAQhAAAIQgABigD4AAQhAAAIQgAAEIACBIyWAGDhSx9NsCEAAAhCAAAQgAAEIIAboAxCAAAQgAAEIQAACEDhSAoiBI3U8zYYABCAAAQhAAAIQgABigD4AAQhAAAIQgAAEIACBIyWAGDhSx9NsCEAAAhCAAAQgAAEIIAboAxCAAAQgAAEIQAACEDhSAoiBI3U8zYYABCAAAQhAAAIQgABigD4AAQhAAAIQgAAEIACBIyWAGDhSx9NsCEAAAhCAAAQgAAEIIAboAxCAAAQgAAEIQAACEDhSAoiBI3U8zYYABCAAAQhAAAIQgABigD4AAQhAAAIQgAAEIACBIyWAGJi146/N6YMXZvPqh7l7uyosvV4/MC82Z+bH/aUp/zLgvw+n5sHLjTn7dmcufxvw/qxf2Zjzk8fmavXR/Lr9c9aWYhwEIAABCEAAAhDYNwHEwL49EK3fFQNVoPtzbT7+ujGaUPd6/ch8edsN+jcXj8zjd/dm/f6XufmrD4DMnpMv5nKMEOlT3aBnS2a3D0cKpkF1Zy99PzePLn43dwiRoQR5DwIQgAAEIACBHRJADOwQdv+q/J2BfmWMfd+p7aB3FPqRDT1dCq2VWqxtp1ZKgQAEIAABCEAAAsMIIAaGcZvwrTyA/2heFCv/2mC+3DHY/OOu9Gvf7zYnD2jPn9z5uwYpMZD/+9+rSApTbs9rs9KmJ01Q3qNvl03KVSygF9tfvxCxa2tiINthOH3/H3NTpYfVVRflf38TTIFK/fuEHZeiIQABCEAAAhBYIAHEwGycVqcAWQY9PDEnP++NiZwZKM4QfLbfqdJjisD9ttu6OnXGDerz1JYnn8zqmTG3n7P6mv/adCSvnuyZk8IuU+bo/3RAdtJ0hLY9C+X0C8/mRavL888M1GlRvqur9inab0zKLvnfy1Qs+RyDJxwKvxizfnab+aG0tny/Sn1yG2Az9Px9cqBnQmYzYDEEAhCAAAQgcBAEEANzcaOw6l4H4GXQLR0gLoNEE8z9D+wMiGLgymSnCNr0liJAvuoIEZPaGahZBsTGc+2OgOuTXuW5gbfPwAvCq7Ym25+yK/t3eWegjxjIBJzivINbT9FXDIem5zKcsQMCEIAABCCwFAKIgZl4Sr4lKHGbUB3EBlfZ+4mBVUdUCAGsVgxUdjXlVavWtqjphb1XebIY6AimagW+OYTtll8Yp7iVSHhvvBhQ3vLU8UX/g+W9+PMwBCAAAQhAAAIHSwAxMAvXhgJPxdWidnqIJwp2JwakNCL7tiI7VUcjCoaX57L02XrCq4cY0NnlHiDuszMQEgNSGpKdCmSnEulvm5pF98cICEAAAhCAAAT2RgAxsDf0dsUjxEBdTCMK7EBwF2JAWJUWg+vS0EYUBFNhxpYXEAM/bd5OPr1KDOjsmmZnQLguNbhL04qC/lfHzmIwYAQEIAABCEAAAjskgBjYIexYVWKakJC3H/3RMS+o3YEYkALpiBgoGMTSjUaX54iBoryNeRP7XQaNGFDa1UcMlLsMlngLcZH+Hk3ZUqQ4zaTfYwYEIAABCEAAAvslgBjYL/+2djevvjnUWt/aIxwgzt7pXJXpBYiBoDBwgDh5ZiASELc3HrXpLPXKtHtVafT6TU8A9S1PPjPQvVdpwM6Awq6Y0CkD/7beNt1IKwZurR+Jq1f/6/LcH4NzRGDybMlcBgF2QAACEIAABCCwawKIgV0Tj9TnXoG5fv/DrP5+bD79EbhNyBIMdbFuPn6nzOjVolcmKQac6zXruly7T16dmdW77Cai+kCycM1pLIVlXHmJMwM2s/qMhWZnIAOctKtwQvca0LadzvWguS/+2ZjH2VWizUHmyGq/e1ZhnTHevPtkyhuapGtprV9gRgzMaJRjCgQgAAEIQGBeBBAD8/IH1myZQGgXovj7v88jP5C2ZUMoDgIQgAAEIAABCMyQAGJghk7BpO0RkMVAtUofvJJ1e/VTEgQgAAEIQAACEJgzAcTAnL2DbVsgkPrl4C1UQREQgAAEIAABCEBgoQQQAwt1HGZDAAIQgAAEIAABCEBgLAHEwFiCvA8BCEAAAhCAAAQgAIGFEkAMLNRxmA0BCEAAAhCAAAQgAIGxBBADYwnyPgQgAAEIQAACEIAABBZKADGwUMdhNgQgAAEIQAACEIAABMYSQAyMJcj7EIAABCAAAQhAAAIQWCgBxMBCHYfZEIAABCAAAQhAAAIQGEsAMTCWIO9DAAIQgAAEIAABCEBgoQQQAwt1HGZDAAIQgAAEIAABCEBgLAHEwFiCvA8BCEAAAhCAAAQgAIGFEkAMLNRxmA0BCEAAAhCAAAQgAIGxBBADYwnyPgQgAAEIQAACEIAABBZKADGwUMdhNgQgAAEIQAACEIAABMYSQAyMJcj7EIAABCAAAQhAAAIQWCgBxMBCHYfZEIAABCAAAQhAAAIQGEsAMTCWIO9DAAIQgAAEIAABCEBgoQQQAwt1HGZDAAIQgAAEIAABCEBgLAHEwFiCvA8BCEAAAhCAAAQgAIGFEkAMLNRxmA0BCEAAAhCAAAQgAIGxBBADYwnO/P3r9QPzYnNmftxfmtW+bf1wah683Jizb3fm8rd9G9OjftfupbajR5MP+lGV/zbm/OSxuVp9NL9u/zxoHPNv3EJ88f3cPHpyZVbvf5mbv8JUNxePzON3K/Px140Z1bNU/Xj+3sVCCEBg/wQQA/v3QWmB8kPS11zEgEAsZ33xu7lTBnnlx/verOuP/JY/wnn550/uogFEX7/zfCoYs/wpPrqQAPQoHD0/X4hjtpgXbs3Jqx/m7m146QUxcBSdlkZCYFEEEANzcRdiYGeeGP0x3qoYmF+gszNHzLoi/DIf98zNF+PsGT3/1I7Z6jw0H29jCQQgsHsCiIHdM5drTIkBzWp29nE4NTedFebpdwauzemD12alSf2JfbyKfzORrfPyA7z5J74F38IN26X5GG8uTs1/X97I6UxOO3LGH/8frV2u+xWBRZKNMUWbvr9RprTkdZ6b3+9HpilUTelXd/WS0FdbMiWTT3/EV1jz51O7Kv1sy+s9Neb/8jS2mF+UfT4bs6fv/2NunFXipE25v/9e9Uvty+eH/zHmJpgOqLNZ7ve6d7s9O+O3/q/5z62cnphkYJS+GMLKaNuTPXfyxVx6TBVj1hnmeXvzuTnfMQjPPwq78vb+74tynCMG5vL1xg4ILJ4AYiDhwiKY/lw99HDC3HtPDFQB0WptzOdbc2/Z2aSrVH/r2Fj9rd6q9sSA+AHJP0IvzKbY3jZlrrRx21o+c/uszqGu/n+H30n8PIBQd52C03VDtxyvfRE/xMurPuI/u7XVPIt6zNqsM963xSPrUpwEzgycPLw3952yqudtv7jnNeyyTJljbPu2qbMKdPP0pBibMiAorS3/i/lAaP/DrL1ZazdW4C0KSK3vmv4hD6xYXzVFkJb1MfdVu8xinHwyq2fG3H7ujIqukIxxEdri23ViCv92zgwo+nwl3NbPsj5UzRt1/xL7pte2bn9wx3qLJjw/2Gkq6vEl9PunVXpctP+5vqrmMblPK/yblZf2hTyOTXJ+TvvPnwOqUVWn/sTaJy3oeP0wG6EPT7J5oz0zoPFRnUZqcy3LMcs7gyVPDfwVAhDYIwHEQAS+FLikPzgDvRkQA1fZZN8GBNVH0A7Uq49NN2i4NucXT81ltgrVXwxkua5SmcJquHswObkL4QZhVZtNJ8fWbWP5ATeJQ3lh6rbQKfN4Qytztb+9nF9RDGQhqx181EGCFdzpgurAKqOKTRU4GeUh10gQbLdZZbcU+KR2tzR99XNXUHl9sQnGrOcEVmVQF+AS6If2wc8mQEv4Ux5fTt/IO52CV1Hnv8+VOwJtQGyP/bIPxwShPx6C/d4bVP673UeE+akYb+fm69tL8bCsNxYFTpIvPNMUq+RSv3b/JrEo/2b3y/iYbfuR8JzUfxWcfdtrYZNYgBn4OeI1CEDguAggBkL+FleAyofDq3UjOk9IDDi3mbgfz1TKyyAxUK/QBgOhQICeSmdxPtgh28u/Vyte9ep5YsU5TN7/IEfFgHTzUmBnwL0VSQwsYjsDxY1KcmChYlOnsvx0AugADFmsBYLDhN1y4BpP74n31VCg6exIiYLDZVgHygEuqn7olqns84GgVMMrHcjbjtUGpG5n8N9LivimiFR6TEosCB1zkC+EclJCtJrTvEUFZ85SCeHAmPUEX8Cm1JztzwkBrgoBNOKLxKsQgMAREUAMLFwMpD7kw8SAu3ruBEIRoRRNU1HsLhTuCK3E5/+mEQXC1rz93lRiwC13TGAR9KsXANipDzFREArkhokBcdesHksBH0X7ajCYc+xWiYHckAgXVT+U63WTtsomW6uzgQBNx8tOf0mt+Or96aeSdcdR1C+JsdSZPpMBuSV+f9pvtm2VbZHbKjENLtQo56wxY9YTAzFh6F4tGuMc4ooYOKJQjaZCYFoCiIEI31mkCSV2BqYSA50PW3b0rXO4V/XRT68C6gPeqqzmgxkOeuuUAi+1yuI4lRhw0wnGBBa92VjBrxwQ6YNHjd2pficNq92KgdqCVhSEroZVBaDaPh8TA+rf+2hFQfiaSl16mWY8hPyiebefGKh8YafXDRFm9cq8vSOW8k/q36uGaPp+aDdvqBhIckYMTBsFUToEIGAQA4lO0BEEyQNqI3rUPtOEYvnpWRD9Mcu+7uZfD0gHyNGoUgLqA4SBgD/6UZcCpF2lCenSLzopUAPShPz8ZbvPxdM4xEAnlG/vBK6u3elUB38sDEoTcu1T7wxEuKj6oXxgvjxkH/n5vj6rwZq5JyggAr7u1K8bDyoxVNg6Mk1IYjPEF4rzFz5a3Zy1VTEQmKu6Y1jjI9l2fy4Z8f3hVQhA4KgJIAbm4v6BYqC5ZcLJ73/9Wxm0eB+3eru8ft7aPndXIe1bLuQbjNxUhuzDdvE1O7gc+F3NwMHNe2+l0PrhnuydR98u2wAsujXuH2AUDx/2Xb0Npi217fdX9+pUq/bHrVqewm1JbtBX+yXGJt8N6Fx9mAh4qp2Vxs8B37ttEe12+1E9jj6cm/Onl/KVrMI7ef/s9NXsBh5vVye5Aizk98e4hPqhdFOWe27GO5zr9PlQ/0zyyttgX/eaCrytlCLX7qbP6MZDVAxYlxVoDvKWga7Vv4t2b8yb5lauW8u/wiFYj5OV7uXMWe3FAy2L2Hkuz7Za4Fhzlk4MVAsWgTHrHSC2+m+7uFQvdvTwkcVVnksSZ2Xm8q3DDghAYHYEEANzcclQMdCsuNsXMrar6tLHzQ7y89fX73+Y1d/Sve71h1hepe+dRiUFSkIub0eUpP7d9Z/7fBYYna2usqtS7ZtlulcMdq4WVR8gzn4T4b0xL6xrPf2UDjsHvCBtPn5bmdfZ1ZjP7d9l6OQL+7fkdK4TlG5e+mlBSOxe+b7/aMzL+lrZesVbaXcgDzt6wN7LjRauY62v8i2a5fQ91c6Aa39WTCQ1pajGsSv35Zvvj70biZJ9PiZWE7z8sjVnQLL+vcn6d9MHZF5NHxLGQzB9SzWW3AHos/duqrL8u351ZjbvYuMhO5Eh+MLtxydZOat3V8lbx1L+04qBbn+pmIt907nONO+H/2zMY/s3VVScNWMSMTCXzzl2QGBpBBADS/PYTu11UyV2WjmV7YSALn1iJ6ZQSQ8CqZ2DHkXxKAQgAAEIHDUBxMBRuz/ReG6rOILegRhYppMRA8v0G1ZDAAIQmB8BxMD8fDITi/xc1pkYhhlbJYAY2CrOnRWGGNgZaiqCAAQgcOAEEAMH7mCaBwEIQAACEIAABCAAgRABxAB9AwIQgAAEIAABCEAAAkdKADFwpI6n2RCAAAQgAAEIQAACEEAM0AcgAAEIQAACEIAABCBwpAQQA0fqeJoNAQhAAAIQgAAEIAABxAB9AAIQgAAEIAABCEAAAkdKADFwpI6n2RCAAAQgAAEIQAACEEAM0AcgAAEIQAACEIAABCBwpAQQA0fqeJoNAQhAAAIQgAAEIAABxAB9AAIQgAAEIAABCEAAAkdKADFwpI6n2RCAAAQgAAEIQAACEEAM0AcgAAEIQAACEIAABCBwpAQQA0fqeJoNAQhAAAIQgAAEIAABxAB9AAIQgAAEIAABCEAAAkdKADFwpI6n2RCAAAQgAAEIQAACEEAM0AcgAAEIQAACEIAABCBwpAQQA0fqeJoNAQhAAAIQgAAEIAABxAB9AAIQgAAEIAABCEAAAkdKADFwpI6n2RCAAAQgAAEIQAACEEAMLK4PbMz5yWNztfpoft3+uRzrP5yaBy835uzbnbn8LTP7+7l59OTKrN7/Mjd/LacZO7EUNjvBLFcycnzhuz36jqohAAEIQGAIAcTAEGoTv3O9fmBefM4qeXhmftxfmlWnvpHBitL26/Uj8+VtFbgr34k+5oqB4v/fmpNXP8zd224Lt1HdosvYM5ut+35RztCPL5HTnn23KNQDjD3uvjkAGK9AAAIQUBBADCgg7faRa3P64IUxz9bm9rO1kt4YoQ9Whttd2rDZZqDuioHhxvHmpAQm8P2k9m67cO34OnZO2+auKQ/mGko8AwEIQKAvAcRAX2JTP18EzcZ8/PXCfBQDcm2wUhqa7zK8/i28+r65eGQef3/jpBxt6aObt+V/X5Rl9xADsk0u+MzGtTE3W0yVSq066uzq2pl8J+fy90rYAZI7Wl7e+ZO7RGpVxubki7n0dpXqMss+tPlHStHaku+zqjYXp+a/L2/KtLD6v57tzUqJ2Fr08Ey4vjarOv1MOT4Lv/z7PL3zlqf9/E/WzzyW/Tkl+0Jlu8bHqXGtxCA/lrf54ndzFxxbw5iX81Fqx7FaDBHTB1PMU31lFBVehgAEIHCwBBADCdc2KTv5c2Lazjb7RjfQL+reuKlCOjHQsbsysZOSU6UztNaflPn8X8v0nc5/dbvFgF74QFd50/dWIScPT8z9TxM5M1CW49Sc7ZBYZyOKcj+Z1TOT7ZqUpctpRjKjIhh7t8qE1o0pTltUwmv97DYrzzK242eFXV4XULwjMFrXAZCQdy75s6i2svVr3lfM2qw/Z22xudu7O57PywebeqV/7+n7ws6OHeuM96X5kp9zyfwv9qvAEPLanPRL1Ydt8eGULXPMbaz6RCU+rsyJOfl5bzp9uGYZ4yT4rux3dkmZUYl+XXnGsqv8S3JcuyxVY7YcL59WmbrO+o9tadM3snLFdmScmnNAkh9VYyx7URgPnfGd7JvezNH260D/4s8QgAAEIFASQAxEeoIYOEwpCNxAQvyQK8SA9J7ztzJoCx1CDqzAqQKLKmDpiJg6OLYCB8VBSy94bwIGO3iTHNhHDGRBhO3TKuiwgyC3Bs8uxWzivhNemW4Do+ZwdUgcWIzrvmqLo/JvMVYSpy34PhNWybMgyZ2i2Aqx1Mfkv3VcI/q26ptNcF4x+WmJpCYItwPfACfXV1I/Dzxzn4moRpRUzxhPzDmpgymOqjErtbn6m5HOLdVUUyv12XN1EB8dY3Jd5ZixFhCKXSBN+qJijlSMWR6BAAQgcCwEEAMhTwdWqvLHY4HimI7jB5nSxy/9oZMDfTu4qj/+oUBxTECofFchBrzUIs07hQP6iAH3XIYi4EgFYFInkMTY58CqqhgsfjLPrVQYV0yIu0gKO/33lP4r2ug/K+9mCUBSvqzHn72C3hQTEApNil29yt+tN2RbVzQFxpdnr04MyKKvWon/o0rfE1n4dqTHtcC5jxhwbihLi970XCSnBzrsQn3BE0SKsVkhUPfDMRM270IAAhA4EAKIgdmIAfnD6q/upj7A7Sqf1LR2xdZOZXFFwYiAMPRhd4OSWAD007a8325C+ea2xYDENJWSknrH/nenrGTgGQgU3ZQyKRCURK6QfuMdHlcFlfHVeWmnLSqs7dQQL63mqpPO0vaYkF/C46Yb9Iaec8eETgwE07tyg+s2qcSAdlw7o17lN+V4yYuW0nVEwVbZoak/KFqVzPOqkv36QL7YNAMCEIDABAQQAxGoO00TiuxE5Ca2QZNSDKh/h6AVBW0d+xADlR1eOsGQ3yZQBjeaQKVa/b6N2eX1IUVbmnfaIK8RagEx0M2K7go41c5AFch5qURCStd2xYCwE5XaGbCZNgFo1eY+77qchXGhEgPaVWrHNtUKdR8xoB7XPYJxpXiuzwzo56JaPCR238aKAVW/nuDrSZEQgAAEDoQAYiDhyF0dIA5vyQdymiNBgSoA6bTbDZ57iAFlkOTl/2rOR6h2EyQHKndZNGJAcf7Cs2DAOx2fSWwSNw5pxID0zKg0ISGvXbRDkzefmlA7ZejTRexiowfym9z4gNj2fKrbGUin2rSr2t0f4FPu/qS4RXaH2vMIGvEsPZNamFCKgehu4q21ECIz1/XrFCj+HQIQgMDxEkAMzML3bsDfNUqV0yyspLqHODcX5+br28vsJp2svs7Vk+5HNp43fe+kN+S3j/gHV9t0jfYWkkjKj3e4s96xGJImVN+60r7bijprRV0tBvyAJPu5tPAtKsm25HzPze/3zg02tcALHjC1ndx/Z8BLOZMOdwZWiZs0DI3v3XQlTzS0uyHBNKHMtkffLtsfpFOducjKvfhqLt8Gfpm7bq+V1hJc7f6ZsW6eE3Z6Epzcw9/NmKld+OHcnD+9jPwatzAGhRXwvLh2XAuTmXv2wtqBbMdsDzFgHShuxvXYNKGa5U//gHZnRy7AXNOvy2dSqX2z+BhgBAQgAIGdE0AM7By5UKEXPDrPdIIAU1wDeJVKF5Bye5sAVsg/dm5J6lwjaP2be73g+v0Ps/o7u5awPgxZmO6WnwWu31bmdXYtaHMIVlgNdNOy1q/OzOZd/J2w++wzEdlTeRv+2ZjHxW842FeLpg8QJ+0SjEi946eg+TfJtCvFjlizfFsHdJqdgfrAb5tutDZnrzbmyrlvf4zvQ7tSbr85yXy7endljHiffAZUSJtzxe2gND5hXHQFSdl3P/3x0Tz/94V1Hap/2F7kFNkFcS4XbVe8VWlCVSeLjmt5NKTHrEYMCD7JxtTZ6spcBW8ly97RCG5xzqjGrPP7DnLfdMZ6diuT268RA3P40GEDBCAwVwKIgbl6BrsgUBGI3oITC8QgCAEIQAACEIAABBIEEAN0EQjMnEAsD79zD/3M24F5EIAABCAAAQjMjwBiYH4+wSIIOATcNIjqn2O52jCEAAQgAAEIQAACCgKIAQUkHoEABCAAAQhAAAIQgMAhEkAMHKJXaRMEIAABCEAAAhCAAAQUBBADCkg8AgEIQAACEIAABCAAgUMkgBg4RK/SJghAAAIQgAAEIAABCCgIIAYUkHgEAhCAAAQgAAEIQAACh0gAMXCIXqVNEIAABCAAAQhAAAIQUBBADCgg8QgEIAABCEAAAhCAAAQOkQBi4BC9SpsgAAEIQAACEIAABCCgIIAYUEDiEQhAAAIQgAAEIAABCBwiAcTAIXqVNkEAAhCAAAQgAAEIQEBBADGggMQjEIAABCAAAQhAAAIQOEQCiIFD9CptggAEIAABCEAAAhCAgIIAYkABiUcgAAEIQAACEIAABCBwiAQQA4foVdoEAQhAAAIQgAAEIAABBQHEgAISj0AAAhCAAAQgAAEIQOAQCSAGDtGrtAkCEIAABCAAAQhAAAIKAogBBSQegQAEIAABCEAAzQ4m6wAAIABJREFUAhCAwCESQAwcoldpEwQgAAEIQAACEIAABBQEEAMKSDwCAQhAAAIQgAAEIACBQySAGDhEr9ImCEAAAhCAAAQgAAEIKAggBhSQjuqRD6fmwcuNOft2Zy5/O6qWT9bYzcUj8/jdynz8dWP+nKyWfRR8bU4fvDCbVz/M3dtVYcD1+oF5sTkzP+4vTfmXI/+vGE+3xjz7aH7d7sH738/NoydXZvX+l7n568h9QfMhAAEIQEAkgBiYS8eIfbR3+UFHDGy9R8xGDOT96OJ3c7e1oNQVAxtzfvLYXP1cTyp8Sp73hZ/Wsw5ySz5mnzZWYuTEEmxb7+CRAnNfnT+5Q4jsEjp1QQACEOhJADHQE9hkjyMGJkO774LnIga2b4e/MzAt61psnJiz98/Np5czX/H+cG2u//rzwHaD+ni48tdqT7sifUzlWQhAAAJHTAAxMBfnjxIDWVB28sVc9kjNKALD72/81IWt7AzkQcC5+f2+mxZzvX5kvryNpx9pVhIL2/993j8VJWf8P8bc9OAkdo/CVxvzJpL2k9t4am6K9JlYEB70Q2K1VfRd/U7uw79XHp/tiIFcAHw0L4q29xADAZvcZl6vT425DaVTXZvzi6fmMk9JGrRbNnylXuq7yb6abHNuz2uzUqbkJftKsr4u7aT91eOpcRu2a4tiIPP36fv/mJsqHa00rSx/8084BSrJbC7zP3ZAAAIQ2CMBxEACfpED/bl66OGEudA9xUBhl1mb9edbk2UkN//F0wHKYMh+vnjRzmd2xYBol/CRL97L0jaeZfbUvKqyf/z2uknrKOqzORblfzKrZ1kM+LlM/Sj/81NNOr6IPNeWUdr5abU2JuNkl97hJAogIdCtWNjleHbWOeK2Tx6emPuf3TMDdqpL82girzz5jmBfmUZTr6h3O3vn35zVW184CGVk7Tr5mdEInhmQ6+34vwroOj7SjLM+YkD0mzHRsRLql7lt/2zM4/wcgNgH9W2++mkVEfS9YswG/Z6VL3CSx5E1LkNjueOXhF2xsTJiTin6bCazi3MYzn+dlDFvHGa7SUrR5RXMHyAAAQgcOAHEQMTB4kdTE6gM6TRDxEAWdNsBTWlvv3xtL+gbJQayD7TFpw1eLZuqj3Tz4W6CBuuZ6m92kGnc9wrGVUASDKTawMwOFEpOVnCgEgPSKqf7N+GZSPs6hzpTwa30787fUjsm8s6AvHqb7Bc5/Uooe30wdoDYYy37KDmEUryaAqryTVfIl+0z4QBR8lsTYFp9R+qrrvHimPpkng8MTl3fRP3ucgqJA9tndTvtuU4cf92GBgWkmybUSwx05xS5X/h9uFwsIT0pOY54AAIQgEBGADEQ6gaB1cT88UkOLQ4RA27QNSTFx31nlBhwbiES2+SkaigDg9AtNXEBFEhTcOvUiIFqpdgN4DqBWMCHuuCt2sX4o72Zx+6acsDXfccTOU7fHiMGZP4DbhPyGA1MJdGKgdBzqSA+0nft25PqVJVPAb8VLhD72218ZyL2eXL6a9TvohjoChGvb2nGg2RfSOiNEgO6m826/XM3B9mJICAAAQgcCgHEwNGJASmNIbJKrgzWy5X7qcRAOGCM58GH3nOCWE3wI6T/tF2n2tUIiDHXxmCaRl5gYJdD947tWz8tYrgYUHKsdwsckSrZ3grqicVAUCAnzjuMFAPxNmcSwroRKX3TT2LMVqlWZdqR43evHYEboOyAXTMeis6vtGsKMSAt1gTTmPrtlh7Kx512QAACENASQAxESM0+Taj3zkCVVuNt/1tB/Cx3BrYsBtxVYU3wo9l16SMGet7F3+/+/jZIswPN3YsBYYV21zsDOxcDmja3k04jCoLph4ox2xQn+D0gBroZ906wrBkPdYpebC6pxcK2xUAlzHXpae3Zhkl2dLVfWp6DAAQgMGMCiIGEc3Z2gDiS/y7lN4vBYSpglf59UJqQkKs/6c5A6Mes5HxwK9Qq7713g5FUm/MCXMGgSUsJPOOmMg251WfIO24f6SMGXJvF/iak2nSek3jsWgyE/JbKgR+6M6BqszPpxMatZsw6xUV9kJcn3DTVKUIjBlR2KdP0isqVc0ps9ykosAfuPs34w41pEIAABLZJADGwTZojy2pWCb3bffxfMB0uBm6tMw/1qlnsMK27MmndIhK7hcgKqLu/fjrszEB9gNhOo6l5hVf8rDSGxlZhpbVOOaifsVIQ2tXHUB6ydd1lkzbRrrS2YtI/IH3vpgR9ODfnTy/lX352baz7WvNObp99nasQAAWCTjfnXLTZXY0VGTmizRML0mHhgYGaRpwVjOo67fQZoQ+4Y3ekGGgPv/ttdq/0jAo9T7S4Yzbhd/HMwFXnZi35Riw3V19KrUvMJYHAvQn8m12FHnNKXaZ9UUKdwmeX17lqWbY9nZ41ckLndQhAAAILIYAYmJmjktdHVvYOEgPNh7Rt9PrVmdm8sw4UBlf82sSC/CP65vvj7m0dE+8MFBYLefvxrf860DwzZ5ur7Jdx63b7OcQu9/X7H2b1d3YtaedgqJQjnZXZCeqdKxebqyhN91d5pZznrKhoexLv+Gltbju7trV16WzWMJJ3I9rLWE+y/rZ6d2X9Km8fMRC4zjJ3a/RaVsFvqVvBhoqBXH5Y5wFy07w29+zHrl/dMRv1e+rMgGVLExxrdgY0c4k3Zv1bxeoRqZ5TihfcfrA2Z6825qr57ZGEv4U0o5l9BjAHAhCAwE4JIAZ2ipvKdkugT6C5W8uoDQL7IBC9lYurOPfhEuqEAAQgsHcCiIG9uwADpiOAGJiOLSUvkYD27McS24bNEIAABCAwjABiYBg33loEAcTAItyEkTskoPhF4x1aQ1UQgAAEILB/AoiB/fsACyAAAQhAAAIQgAAEILAXAoiBvWCnUghAAAIQgAAEIAABCOyfAGJg/z7AAghAAAIQgAAEIAABCOyFAGJgL9ipFAIQgAAEIAABCEAAAvsngBjYvw+wAAIQgAAEIAABCEAAAnshgBjYC3YqhQAEIAABCEAAAhCAwP4JIAb27wMsgAAEIAABCEAAAhCAwF4IIAb2gp1KIQABCEAAAhCAAAQgsH8CiIH9+wALIAABCEAAAhCAAAQgsBcCiIG9YKdSCEAAAhCAAAQgAAEI7J8AYmD/PsACCEAAAhCAAAQgAAEI7IUAYmAv2KkUAhCAAAQgAAEIQAAC+yeAGNi/D7AAAhCAAAQgAAEIQAACeyGAGNgLdiqFAAQgAAEIQAACEIDA/gkgBvbvAyyAAAQgAAEIQAACEIDAXgggBvaCnUohAAEIQAACEIAABCCwfwKIgf37AAsgAAEIQAACEIAABCCwFwKIgb1gp1IIQAACEIAABCAAAQjsnwBiYP8+wAIIQAACEIAABCAAAQjshQBiYC/YD7jSD6fmwcuNOft2Zy5/O+B20jSzuXhkHr9bmY+/bsyfOY/v5+bRkyuzev/L3Pw1AhB9aAS8vq9uzPnJY3P182TaMYtP+zqG5yEAAQjsjABiYGeoExXFAqltBVk7aGsZIN6b9diAcJCt1+b05Iu5vL80q0HvH/ZL1+tH5svb7Yk0TwwUAd+tOXn1w9y9HeGBxQeOWT988MLc5t3p4Zn5MeP+WPjw3+fT27h4nx723EDrIACB4yaAGJiL/w9EDOwVJwFHBH8ZoG7GBupWDZ4Y2Jbzl+zHShCZZx/NR/PCvNjMWQxszPUHY/78a4Rw0/p8yT7VtpHnIAABCCyUAGJgLo4bJQZSK+JlKsDmnz7pG6l3Uv/ugk3ZWD+fei5S7xYDjuv1qTG3VfpL05Q8oH5tVn1SoAq/bsybOpXG628DOEZtCJW3HTGQC4BTc1Os/OvFgKKNue/+94X5dZslHEX8WNT5/U35XI//bLvl10obP/2R2tXIOK6NuQnUv7k4N1/fXhZpU9frB/3FQNF206ZeaduY97OL381dx64RY6mqtx/vicdmxubRt8vurpPYbh9aelesHB8msqPZj4XWcTwHAQhAYP8EEAMJHxQf9M/VQ1Nu+fcUA4VdZm3Wn2/LdITqv06KRr1K6bQxmsKjeKfDJC/b5uIGclW77gXOtR3baItnU1Zfw0IMLt3guAoGV1mklzEt7K3aZarUp24TEjnWYrvXnSAvytHjZaWetN7u5HkHy5N8WvtMxSarUCjj5OGJuf8ZOTOg6Ev1OQO7f5TlGqttUtszm7LV96AoKPh/Mqtnmab73CndyY1XlC2UpUmF6iMG6vS6Pn0sNG7W73+Y1d/5OYAR84Lnu0h/1/jZ7WeqfieMyaJJuS1vzOZJlYpVNbMzr1Wiav0smx/r+dudq/L/H5if4vPoxOcr9h8XYAEEIHBkBBADEYdLAeZkOcBDxED2kbM/WqW93YCz27zqsOAqEkR5PNx3EitozkfeC4iEdtacR7cltKLcI/DIA6j0eYfUKrvEuSdHxw9SYNn9W2plM2BzHzZ2v2mCKKu/Jc+2+Fz8dtXBeTzgSu5KSPaZqmxLvIpjpgpum34glpX+UqjFQFW+6aRwVaxMOM3IHzf1YeCuUBoyL5RCo888YfMQ+v8IMdAdk614a+cLgVUtULyFiltrfMuMy77VitFxLNL9hCcgAAEI7JsAYiDkAcWK9ladN0QMuPnIijQZdYBiNa7zTs0ltCoriYFOUOEHraJNQ9qyDTGgEkoJUVWtJD930ok6hzVTHDudKxDo2yklyfJGiIFA3xxym5AkYLxzDArfx1KJCnQqm0Oirgo46z6eFDnyTKAdayFh4walbi1S+WJZitSjblm1qIgtLMRnP8+2MWLAGZPBdtsHoTUiN+TXjjgz1W1Lw1ls9TtBYRCAAAQmIIAYOHQxIImaVLpT6h07LcAVBc5HWL5xpnv1qFoMqOwSrjXVBAYmEeBLqRBRQWQnb9mdzAoqYhztVyLCtEyZqG4IipY3QgwEgnOVGIj5LBSMifVZq94Nm8jugaZsE7oK1ekLE4uBoGhIiKJRYiA1lupdlIK1IhBOlTdHMRDk644VO5VMwWKCDzVFQgACEJiSAGIgQnf2aUKpnYEqOPTSb2I3nPR5pwk+3QC3DcilXGg331olBjR2TbQz4F+XqhEOPX5rQeIoiAH1/f1ieXsQAymfaQL24rcq/PSecTsDVQrIsYqBlF+EXalc2gbT5zTlLVoM1EBaUZBOJZzys03ZEIAABLZLADGQ4NkRBKkV9VG+cVITrLKkdAFNAJ3OM/cN7v2OG9B1PvqKW2TyUE+6dUVKN3JETDIVoW6eJBK8PO1QgK/J/3c4DllJjr6TOqMgdDyvvB5iwGUTsM3LRXeeS/cl2Savv0v+S6USxWxu+lGAibL9qeE+Nk0oles/dGcg7Re3ZXHxqypPIwaUY3LyNKFK3MgB/5BzV6mewr9DAAIQ2C8BxMB++Xdqb1bR7fSTepXXSUlRB9D2geK6rIio8QIQ953s/3eu90t85KXdlSE7A0m7cpKJHOB7Jwc8v2PGO4TonRnwDxmKfup6MpBnfG3OL56ay/wHuVIcnX5Ztt9Ni8lsu/ialVdexxn1SygNyj1rYKV7eGx+tjtArV/DB4g1PnPb1e4k+elPbXCmOGRstaN5L7SCnR3Eb8sW8uWHiLuQyJXmm9pW4bBr7NaiUWIgOi+4V5LGxajGz95OTp9+N9WZgXpMdH592d2FSrBw2zGj7wmmQAACENASQAxoSe3oOfGKQSE3XSMGmvSKxva1OXu1MVfRXxx1r1p03hFyg/1r+Nw0ofr6STvv2wksUylPnRzmvEFSW7p55bZdLtf6+sX2XvnIip/b5ixoO1tdmavobStSjntmtiBIavekrquMpq2l/JJV0mFgBZ5pNrmFTr/I3/9nYx7bd+IHdiPa0xNpnxX56d9W5nV2Lah9ANtt+/rVmdm86z7TGaK1LcVzV+VVsfl/obFkXz/p5sj3EAPyFaF5xf2volX1B2fc6A4QJ8Z4EyRbRKO7oqnysnKEnZx0v5PH5NZ2BormCeO009bEvyMGdvRlpBoIQGBKAoiBKekee9nRlfpIIHfs3Gj/eAI9AvjxlVECBCAAAQhAYLkEEAPL9d38Ldfmms+/JVi4NAKIgaV5DHshAAEIQGBPBBADewJ/LNUO+WXVY2FDOyckgBiYEC5FQwACEIDAIRFADBySN2kLBCAAAQhAAAIQgAAEehBADPSAxaMQgAAEIAABCEAAAhA4JAKIgUPyJm2BAAQgAAEIQAACEIBADwKIgR6weBQCEIAABCAAAQhAAAKHRAAxcEjepC0QgAAEIAABCEAAAhDoQQAx0AMWj0IAAhCAAAQgAAEIQOCQCCAGDsmbtAUCEIAABCAAAQhAAAI9CCAGesDiUQhAAAIQgAAEIAABCBwSAcTAIXmTtkAAAhCAAAQgAAEIQKAHAcRAD1g8CgEIQAACEIAABCAAgUMigBg4JG/SFghAAAIQgAAEIAABCPQggBjoAYtHIQABCEAAAhCAAAQgcEgEEAOH5E3aAgEIQAACEIAABCAAgR4EEAM9YPEoBCAAAQhAAAIQgAAEDokAYuCQvElbIAABCEAAAhCAAAQg0IMAYqAHLB6FAAQgAAEIQAACEIDAIRFADBySN2kLBCAAAQhAAAIQgAAEehBADPSAxaMQgAAEIAABCEAAAhA4JAKIgUPyJm2BAAQgAAEIQAACEIBADwKIgR6w9v7oh1Pz4OXGnH27M5e/7d2a4zFgK9w35vzksblafTS/bv9cLrutsFhu83PLr9cPzIvNmflxf2lWM2zK3O2bITJMggAEIHDUBBADc3H/93Pz6MmVuffsOWmD/zkFYrm9F7+buyUHtlrfb4X7tTl98MLcPpxvENnFkdl78sVcOgHv5uKRefzu3qzf/zI3f2kBWs/Z/fzZEoVRJep+rs3HXzdmfrJuz/Yd07wwoPvzCgQgAIE5EkAMzMUrVZC0igVZWwlKt9PgMihczTQg2k4bm1JmxH3LLQsXN0GbayFx8uqjef7vi+XvkuzMGcup6KjmheW4BUshAAEIRAkgBubSQbYtBrJg7tTcBFdv81SC17/9MHdv44kO1+tH5stbPy1J89G/Xp8ac+uvnhbv/vu8f5pFzuh/jLkZnZ6Rr9K/NqtYulUeDP/vizKlJxIYF235/mZ86o+4oiqvzrtdNrch93XQl7n9f6+SvDv+GiIGsjacvv+PuQn0qeuLc/P0bZ5aMyRlqnzn0x/pPttrSA9hE6ogWZai39llT1Deo2+XyTGf96fzJ3eRnZ9wOzTzgs4/WR3rbKw7O4+p8Zb6d13dPAUBCEDguAggBhL+LvJvP1cPTZnisSUx0LG3MvvkVRtApf69DHyNWT+7Nbd1u/NymrbXaQhdcGXaSBWwrbKv+OfbMuXJYibVndUU2V0QyhPaZER2UsBZpep0TLfSsPK/C+laJw9PzP1P0zmrUa9yd4qKpr349hQ8svavM1a3VkHr9z/M6u/sfEFWZ/2f7cPSxk9m9SzTWp/txDK7LbKfbH+YKij/5Pjr7erKXNi+z4xo6ndFgtBf0ilEfcSA5LPMoCDrqmzjpmNV5RTvPS3Pb1h8C86d8R3uy187Zwb0nDv1pexX2BYqzz0zIPbVosHV2Av2p+7YlMup+1xsXgics3D7kmBH2e++lil27lxtMyzKsp9wxvVxfddpLQQgAIFeBBADEVxi8DqVIAicGegEVqnV2uqD2A3Grs35xVNzma/WSu+LwV32UbXbKZQrrwC2AYEXEAZsKz7yisDILq/0i/WxV4oB6WCl+zf/mToYTdSXFHMBMZAF3W2gbwVUFpOyvVZg1vQVO1hTnEnw/J/yl3BYXdNfklOQXgx4bc/LFvuSVammn7s29mCTPKAbCHKfDz3437O8rn1lv9hYCwLe2JX6U/U3Y73nu1VRdvWSyExsV35uKn0ew21DKayXeAYlOVh4AAIQgMDkBBADIcTBA73ZetrQw5Mxdwbq66wIJ8RAaote/mCWH3RTt0msQ/vRDwd5oQBKDPYaToHy3MBbJQacdtZ1VCvb5WFQv53FYw4TOc0plcYSEAPOrTSiDzs2ZvYEhEfK//57kaA81NdEMdD3hiutGAj4o/JTWETauwDlEd9kAO8x7d+Xm27rllWJl85Y7jO19yxPEgPN+G76s2l35FTjRzLYZxTqg33EQPTcVGfc1v1uz4em+/iSZyEAAQjMkABiYGZiYMwB4njAE0hnqNofTAMpQ6n06mLxXCiACgdW8QA29J5jjyaYiYi7bG2+TAEy5Y1Ong+cAFhOd6pApnY5rKtFJX+NEQPSzo9kaytmZy4GgrstaTHRFZmyqBjKJrjD5KRW2YsGdoqNRhTEbctGWnWrU97r3PK69ilEqGb8dIJwJ2HH6vPTiQFp/rJTgex0svTOwgy/xZgEAQhAYG8EEAMR9PtIE5pcDKTuuZ9kZ2DLYsBNYdAEM8k0nqwjhJ6RxEDve+YVQVkup6RbmnrtDNRnG4TV0h6r38FD07vcGRghBjq+zI5X5+dg2qtAx7ERg237qtFIX2uC+GC6oca2dtKSypPtsyc6+ZxMd+4Jrfrb18ruamdASIEL7pK2omCSHdy9faqpGAIQgMB0BBADCbYdQTDVeYHcBk2wuo00oVQQO4kYCKVpVMGEd9izdkpARARyjbvBjJsqEko5sTuA/EwZcLUHiJPpOGKfml4MdIJAqT8tTQyE0rZU+ewt749ZNnknn3wkm/6cnQ4RG8cq2+Ll+fZtzJvYbyJoxLS46zdODLjjSivGi9ZH58L0ztF0n1RKhgAEILA8AoiBufhsC2KguQnHOXzaXCEayF3eZFc+fs2ufCyyq5ViQH4ulXaSpRd4KQWxH7CyUgOa96SDsu7frJQB7yCue8tIVsfF1+yAtZVbbh1ObtMx/APE925K0Idzc/70MvDr0NsXA/k9Qs3qp+tbL2BuWarShJS7JPGgLDS49MFaLcY9mxU/+mWn0nRWiUeykcRAe9DW5+xe1RkVkwrbUuVJZwa6iT1DdgZ84d7w9W718c+Q1M/WfoiNKzlN79Y6q+Ue6nev4JXTCL3xOpe5HzsgAAEI7JkAYmDPDmiqD+a09/wF4ioobJvl5M96/54/mapDWjHvXvloXy16FUpFEuqOb+XXQeOZOdtcWVdBCjnBTtl5HvWb74+9G0bSqV9ubnJW17eVeZ1d5dm5DSbgr3B7ti8GVq/OzOad9avVjjhxr4I8yZ5fZc+3h0ljQXmXQ/xqUd0B4vBZi3iOt/+eMie88ZH//Bg27pmBZFk9+/3Y8qJnBux+W/cX1c5Au3vZXGab7ZSeZdfQXnVu8ZHmhXyOUYyryIKI2wfWRd+vx6RwnsDexa3bvMhfvJ7LBwo7IACBQyaAGDhk7y6+bfoV5MU3tU8DNLtIfcrj2YMlENqFkG/EOlgMNAwCEIAABCIEEAN0jxkTQAyIzkEMzLjPzss0WQz4V6/Oy2qsgQAEIACBXRJADOySNnX1JIAYQAz07DI87hCQruTMHpnyMgR8AAEIQAACiyKAGFiUuzAWAhCAAAQgAAEIQAAC2yOAGNgeS0qCAAQgAAEIQAACEIDAogggBhblLoyFAAQgAAEIQAACEIDA9gggBrbHkpIgAAEIQAACEIAABCCwKAKIgUW5C2MhAAEIQAACEIAABCCwPQKIge2xpCQIQAACEIAABCAAAQgsigBiYFHuwlgIQAACEIAABCAAAQhsjwBiYHssKQkCEIAABCAAAQhAAAKLIoAYWJS7MBYCEIAABCAAAQhAAALbI4AY2B5LSoIABCAAAQhAAAIQgMCiCCAGFuUujIUABCAAAQhAAAIQgMD2CCAGtseSkiAAAQhAAAIQgAAEILAoAoiBRbkLYyEAAQhAAAIQgAAEILA9AoiB7bGkJAhAAAIQgAAEIAABCCyKAGJgUe7CWAhAAAIQgAAEIAABCGyPAGJgeywpCQIQgAAEIAABCEAAAosigBhYlLswFgIQgAAEIAABCEAAAtsjgBjYHktKggAEIAABCEAAAhCAwKIIIAYW5S6MhQAEIAABCEAAAhCAwPYIIAa2x3K7JX0/N48ufjd3t39uodyNOT95bK5WH82vrZQ3zKTr9QPzYnNmftxfmtWwInhLIADX/XSLKblPWfZ+aFHrYgjk354nV2b1/pe5+WtCqz+cmgcvb83Jqx/m7i1fhAlJUzQEkgQQA0lEu3ygCtp/unWemLNvd+byt6G2zEEM1G1bm4+/bsw2JE4vGlsVV71qnvjhPXPt3bprc3ryxVwegCCcLmBfmk97dwL1C5uLR+b8yd20QanamiN5cCdBejYPPHhhzNSCQ3AZfepI+jHN7EUAMdAL15QP1wGAH/iPn7zmIAamZJcuO2f4+N1qP0Ikbd7xPFEEGpuR4nYeuKYTA/No3/6tYN7avw8msuDDtbn+68/dLwoZ+tREHqXYhRNADMzFgX1XY/Ln/15FUm7ySe/UmP/LdxRiE2C+QvParPrsPCTr7llmVt6jb5fpreLk6n643u2JgayOtTE3TrpVUf73Nz3SsBKMiq36jXkzehcl9/25+f2+uxtzvX5kvryN7zblbTo1NxG/6Py8uTg1/315U+5sKcRAHmS//q1f6oCW/xBhHbKnrxiQmPezpxzHm39i6RtD/T1spbbjW28u1fUPY0K7RbrA7XqdzXO37m5j+e6nP/r1o2GfA8VuV9HvTe/FCO1Y0Ixnr23J+TRAI/megkcP0P3bFuvLmj4lz/FFP93TbkYPXDwKgUEEEAMJbMUH/3P10MPp8t3LelIpNIE0Iseujs2F6Sfm5OG9ubfODJTB8b3T+lg6kqZu4Zln7TkFN3iSbchNqjlUH/RVFn1/vjW2tWtrezneFtnu+n0xoHMD1iIw/2RWz7KY43NpRZnn+rX4ONy6fchqs9+94oxMla/b9Uy8X3htqAKP9bPbzF7LgsyuH7+97vrd7jtCO8u3u/1C03cKmzI/rjO/lXzW5v9BK2TEAAAgAElEQVTN7Pn/bHsajmW+sN9va87hfGLRFpt/sE2psZa2JykGQnXnzP/ZmMdZvnT7X9cet2yPje23of7OKxf7W4p7fEzVQVN3XHT7kN8/qp5W549Hx4EwLzQ8yoCtz5iU596qjUae85P2V47VjBXpE5QcCyGfR79Ruvm07hPtmYF+77lflWL05/P1U+ksghCcD2qboi/H+lRwjs/mnkFjRPIqf4PAfAkgBiK+kSZkM4kgiH94ot1HDFy7h7+aD1I0SC0/ops+h7kCQfPzwC5DN8Dx6/NX79ugow3+Naw0ZZdU9WLgKhMj6QAyuQNRfXRkRtKqVXolSxYDWThk9dU2KLHaUO1GNWybj57dziq4ivZ7n3c9drzDgaGdAenvqV0E6aCj+zepTdXfTKyvK+zRiQGn31TMOwJLsEcaK8H86rrMvv6uUyacgLfsKyaYyiX+e9aG86+X5jI7cCpxCYkbu3/4QXmo70vzgjWe3UUVt5+7E6rUHxKHaKX+7dkv9jPF/KXoe+UOW3eM13+zF0q6TVXOp17bde95fg+Mxe7B5JAYGNi2ZF8O9Clx7svpyf5KjZH5hnxYBgGZAGIg1DMCqwHNKsdWb1lQfCASdtYTrByMpgPKZtLrc+OQO9knUp2SAY63lS7bnQy4hbzQ0Dt9xIDqdo1UABtjFBAKhe3/Pg+mhMliwMnLF4MbZ9s7EAAN4R0MlAN8ypVW97ar+La8zMVJDxHblB4PGnu0YqDbbyTR7ae0dMqu56KQmJeYjvB3vRIaEkvxdgd85oxt1bgL5neH/Bda0KgEbXAxxJ9/U31eY3+ojFQgqel7crpdakFHOZ+GxIDzbXDb59utmV9CYsA9V5RoW0i8eYIsLga8OV5dLiEmBJZNADGwQDEg7VhE015CH9VmldKCEN09kFMnQik77qpw9wPqT8r+B1b58crNT7RlOjEgpUzEb3+yUwc6jKQ2NK4J70pMLQbEwCPBu58YkBi2fTJ09aC4c1e/VvfjQWJAZ8/OxIDbv90xOlQMBIVrLPBKCKnIIoq9G6IJpsMLFD0DOs2h0Q4LX5y5nwmN/f3GQF2Dru/NUQx4c6xi11r0sdgvE2JA3Zd79h11ucsOBLEeAoiBSB8Qg41J0oSyKTGxNV+aWX8orMDQCXbkD5A/AdYBqZd+E9wZSNdto2wCXouXKAZ+2m+5QbRODGjaMo0YEFJoUjsDVnM9Rj3etalNLQbcvqnh3S8QSq/US8M0GYznL40RA4ldsmT9kdX5bjpeYmfAbnwjwtx0rwE7QYMCHZ0YSO2iaYLpnYqB6nBo4ZeX/y3OCIXSHXN3aOzvNwYcMZDaoR0SMAdEkTc3DtwZkM5HdIS8diwOaZu6LyMGCHshIBFADCT6RUcQTCQEChNSqQChwMaZYOWg190mlybEAR/5RF6tu3rlpz6kbsvRiAFdW/qIAU+Yhdqpye1NzTt2GWbYj/1MLQZSOzpS0NY3EEoG1gLHVCqHPa6SecpO+Rp7ks9MIQakeWDozkC0X9+Whz6FdMh4u1OpKiVoTTDdWwzYAb39I1Zi7r7foWqbPv7xybyIpOVp7Y/OOZHLIpL9KjdgSMA8qRgo5+HoTVeR8XBr73YNaZu6L/cUA+pyUxM9/w6BeRNADMzIP43w8G54uTJF/m6xYlX97+Jj124pe4dAm8nVul2j+VsoRza7ByKUJhTKvfxZ3RSRBQ35x8/+gSAxp7T5BWLp1o8hOwPKtgRWjtxV7nZ1y7JF/UGo2xROE4ozEnZfytDJnF88NZeBX+ncthjIbwNp+pN3xkHHOxjQJFi6KUGbi3Pz9e2lfB95SEB/yA6zPs0Os+ZXmWpXI915IHC2w7YnGbRtSwxktnSu3nX78lAx0Mwfdn9VHBgP9Ik6ECznMWEsX3zN+nD5c4M6MRB4LpL2U8+h3o7nz/ThfzvVMPWruCr76/7p3fyU+NVdRd+bnxhI377V3DIl3fw0Vgz06Mui74ILW/WcnBgjmsW8GcUamAIBlwBiYGZ9QtpqtQN0999PXp2Z1btMINireE4+d/5he/P9cfeAppvbm03QZ6src+Ud4mwBJesW8sjt1cXoCrNtjytaEgfXvKvfxLZ0xYcfLNTtzIKGbyvz2k4TiOyAuKlk68wfm3eRFIMEI1vgdbpm5CzHtsXAqmhDfgtO9Z9bt6LvhAPlbk50+sxE4te3AznqrjjuuzNQtFw8w9HaszMxILTR5zYgTahopJCjrtgB9eap5PXGWVXBlMGqnwV32uqLQrtXDl8FUmncMdleVZya7KXAT35HJQbyV1O+C5mU6HtzFAPdxR+7X/k3mNXNFr9NQ3YG+vTlDtvKtugut2KMIAZSg4t/nzkBxMDMHXSo5kVv2khs0R8qk723K5X2tXcDMQACUxLwd72mrO2gyg7NHcXf4+cvDooDjYHAQgkgBhbquKWbrTvbsPRWLsx+xMDCHIa5WyVA/x+OM8Cu3KVRpGgNr5k3IQCBLRBADGwBIkUMIRC4Qk+RojCkNt5RECAYUkDikUMlQOA6zrNiiqvz6+XjauBtCEBgKgKIganIUi4EIAABCEAAAhCAAARmTgAxMHMHYR4EIAABCEAAAhCAAASmIoAYmIos5UIAAhCAAAQgAAEIQGDmBBADM3cQ5kEAAhCAAAQgAAEIQGAqAoiBqchSLgQgAAEIQAACEIAABGZOADEwcwdhHgQgAAEIQAACEIAABKYigBiYiizlQgACEIAABCAAAQhAYOYEEAMzdxDmQQACEIAABCAAAQhAYCoCiIGpyFIuBCAAAQhAAAIQgAAEZk4AMTBzB2EeBCAAAQhAAAIQgAAEpiKAGJiKLOVCAAIQgAAEIAABCEBg5gQQAzN3EOZBAAIQgAAEIAABCEBgKgKIganIUi4EIAABCEAAAhCAAARmTgAxMHMHYR4EIAABCEAAAhCAAASmIoAYmIos5UIAAhCAAAQgAAEIQGDmBBADM3cQ5kEAAhCAAAQgAAEIQGAqAoiBqchSLgQgAAEIQAACEIAABGZOADEwcwdhHgQgAAEIQAACEIAABKYigBiYiizlQgACEIAABCAAAQhAYOYEEANzddD3c/Po4ndzd/vn/iz8cGoevNyYs2935vK3/ZmxyJpz/z25Mqv3v8zNX+EWXK8fmBebM/Pj/tKsFtnQCY0+lP6n6gsbc37y2FytPppfI8f85uKRefxuZT7+ujF7nD0m7BgTFK3y0QT19ilygvFwKPPPoD6/BJ/36R88C4ERBBADI+Bt/9UqIPjplnyyl4C8nGDvzToR0Oo5XJvTky/mckmB71BRpvzQ7OpjnPvy/MldVJjo/Sg9OYFvJwh+xrUx/fb1+pH58tYRz0U7bs3Jqx/m7m1I8iEG0nQnfEI5Xie0IF301sdD/b1ZL144IgbS3WfSJ6rxc+9VoohdQu8+ZJFsUp85hSMGdkk7Wlc9MfuDZ/pAbkcQtv4xm97uQR+Z3CxlcLEbMbC9QDNIfArfTlHmpF0mE0QPXphNNOgPGbA9Hw3us5OymXnhyvG611YsbjzsjtagPr8En+8O4biaxrCU3lUtoIwzmbe7BBADc+kRvTt/GTx8+iO22lg2bgoxUUy+398kUhqy4GhtzE2d9pD8mOXB1GuzGpCWpLOnCtJ7pF+lPjLBep0JLn/u1Nx4K8NhMZBiUfp/8088DanqAckUFC0/ceU7ryTpW31/bYZksMxtsrEmgMJnG/MmlV4T3C3qKwZyJqfG/F++kxATA6n2lmO87l+xPpv3t9e/ReaMnPnfqy2krTlj35lnCxv/fZ6uJ7Pn0bfL7rhR7Napy6/tigQzqbGR+veg/Ls4Nf99eeOlYAZ9FBwPurlgE6hPtq/HeFX4I9XvhjDU9nntHK0JBca1I2d6bn6/3076XsqWuj3SnJ2KCXr7Y9tiwFTzoWF3QNMvt/EMYiBKsZu2E9/mH+eOIij8rNmuLQOOW7e6Z1aucTEwP5nVM2NuP9sbd1b5lfhwU4DKQMKUaUlf/TMDdepQp/pE3Tm3N98fZ+3rGt3ylNqk2F6shE6eyhS0p5pUPq0yVfL51nRoRNOf5JStkpfWB1fGPDwx9z/tWrvtcsWAyNcI79gsY9up4hZs3Q8U7Sj6iTHrZ7dZX7IoW3WWfbePb7Nn7T4TGjpO8LN1Nk4g2O1F9lisAqNYH6rGU6cpNSPhQ+kzOzEnD+/NvXVmQNPeUoR1Z4OTos91zwzEfVSJ5OyMi358BJwW45C9ItmR9S4rTSXEOh8Db8zmSXfuc+evdPkBuz0faceGzT49ZxX2Ze1dZ3NR+Wbb9qSPXDEgsc5L7MxrsXms8kfnzJKi3T3mVF2b+jHU9nndtyp9riv30rh2CD54mPWBrAdsrMU8cWFIEIBJW0Lf/3w++mdjHnfmC3vsaXyvHT894iFRSFS2aL4TPari0TABxECQjTyJTiMI9CpYFA1uYN8EgNZAr/5mmhQGaSXS+Zs7EUmD1v2bVHfNOLCyJU2CqvQZjT31CsNP+yOp553aGaib5j0ncqgmODeQjh4gdleby/9vep3j0KegeO2oAw5bcEhCMuZbV+QGhKg3FJO7DVOxcXm1c0EbaEl9KLAzEBgj9uHyJnCJfvzc8gW/Sv1O4igJLc1KffRrKn/Ary/OzdO32QF50e/uOxLrNkhp51+Bv6r84cGMOzbKwL7fge86kPO+IwofaXff7EPoncWd+hKIrI+cf700l9nFBu48q/q+aOdURZv6M1T2ec23QbuaPbYdkYDe7gcqMaCwpU5RzU77tSK7EY6WYPViAn9saL9/bZ3dMlTnDYNCPC2uCe63RwAxEGIprqhmD09yqEUbnIbSEJwPqjjJ+ZOo96Fw31MFDM52cmyCFYO7QHBbrUjHbkSRUwHc7W05ENZOctrnvA91gIMYUETFgGN/3S97rZjoxYDXjojPOrnx2ueK8aZc9UmKgS2wqVbRnjupad2+pe1DOjEg9ymNj+T2ujdW6YLW7rgrg8CRH99EcBUS+N0AVOYgveuOf135w8VAd2zUokWzm9vWGbXRExbO3JgcD4HgPjK/dO1Rfl9qMeDcfNW/3w1gqJxXVd8GpRiQBYvtm3g7ZJ/7rDViIG1L1tciK+3d80zut1IYG4o+V7wViJdUi6fSu72+b9sLiI+5JMTAksRAcPLSBAnhFZV6t0BeFW6vFpW34CuA9eDtKwZCoqsoNh6cqOxRfrhC3SAsBqSdI3/Vxbta1Jlcwx8AJxHMnhzt9ADVpBkLNBPt0Ab50nPa/hqCH1wF2yIbm6VnRx3obVcMyMFBwEeSfbXPAx/qbp+V/Ns21Ftpz3bQUuMu+MGMBg7hPija6wSaaTGgLb+PGEiMjVrUFkXqREHU9wV7/7/GR5Ex1klxaxas0gKzY496vGrGg7bf2akpCoaqPh9KR+vxrWrcMLYdIR8MEQNKW0aJgVSf7zN+7Gf9cptdg1B2gerbdszh+3bbjhgI8pQHnkrpDvCRuJ3rlqOdrJU7A3nx7cfgP+a/7oFkTeCqtjF7sFfAmIaoSiWaRAz46T79dgaqMxnZtr3bhjpdxEtHke6fbwLF1Ec0/kG69VKArN+WmJEYmISNauVLE/wUo0m+TcgZj1oxkGyvKjBKB4TdkdbOe73nuoMSA4ox3oBrA9pUWoTW9+Ls5/Ktxn841STt+8nFgPp3M5QMVX1eOgshEFXtDKQZdkt22zGBGEgxHSwG+vR5h6eKpV5IqOKhdIjAEz0IIAaisLqCoPfHsYcjmm22XjnDVQVu7l8PMdAEse+fm08vP5lOuoSUJpT6MaO+OwOhAErBTpfCow3k5ArFOnrkbbo7A2KObrONL9ma+BipJuHYqrPzo3JiwOH+8JwQ9GpFQ45ZkataeKNT5kRsRvDz+4ZODMj9NpA73/nwOwwCtrt53zrR7IQ0Q34Mb1CaUNWm5tYQua+mdwZCAaBbvjIg0YzxTlG6oDGaJpT68UHF4kx8fvHbrkoT8sarbk7t3+8UDJV9XvVtUI19pbCI9AWRgzAHBvt4faGHsHgk9uahYqB3n7dqV7IcZ68iKOCRwQQQA4PRbf/FJu3FXql1Jo36GW/l+Kd/WLgbiCZWh/PmuOch3MmhTulxBcuH7EDa0+xAWn5ALTYpRCdyNyUos/fiq7l8G/kNVY09I3cGxN2MakWu9UG9GuSnCeXb981z2pU86zo172BpVkbnqkXVynbgg6ZphzbIj/pWOLxt99fQUJLEwNbZ1ILf3V25zvrf06z/5T8Spgt+Qs95Y8Lrt1aqRDO2/CDWP2Ts296mzvmHB93FjE12sPdrdrD3z6J99pWHbnuVAXVzsNSpu76qtN7JsuaP5O5H1Tc0YqC5ZSZafh8xcGvdzOOO8ez/d35AMZRvrxRZwtyQv9n6yBXHdSqMcEhUOOzvpoPVVxKL4iG7GSz6fdGOh2SbhjBU9nnNt0EbwI5th/t+bVvmUntMumOhGe92umzSltA3WOqfJcvmenLN9yA0V2tZSu8rBV49vlO7b9uPzI6jRMTAzPzcTgCWYU7w7efKO4FMn52BrJq6PNUNF9ZEZqML5v9JKyY/yz9629vO9ZSqw9ope7QfrmA/sHNa24+k64P1qzOzeWftrBR2Zf+/2HGxrmyUfGmvCLrtyT7sZ6src1UfLhTaq9qxalKK8oaGrzP02qEVA9YNI2nfptKaKmeExGjtq22xcWxvuoIbmCcOTJbBW/mr3cV/katF3esRm+t37UOkqb5QVNLtn0WdxfWBpvursh3/1y1sxWt8TlEe+JbsyXubffOVYId4FWbvMwN2n+meKVEFD8KcGR/jQhqp4nKJ6Gp5wkf+woTj+2xcn73amCvnVijvm5K4zSz5fekzp0bbNIyhus+nvg19AtiR7XB9sH7/0ZiX7g8UujyyefLbyrzOvyP2BQepfjJ0Z8CKBeoZwvsehL6TAdaq80chPzjCh9ShYJCylX9ADGwFI4VAAAIQOFACtbAd8GOAB0qEZkFgJAHdTtLISg7q9UKk9rzK96AATNwYxMDEgCkeAhCAwJIJ5B/h6K8WL7lx2A6BvRBADPTCXixIKH4dvlehPGwTQAzQHyAAAQhAQCaQf4Qvfjd3t5GzO7CDAAR6EkAM9AF2vX5kvry9K88l8t8kBBADk2ClUAhAAAIQgAAEIAABCMyfAGJg/j7CQghAAAIQgAAEIAABCExCADEwCVYKhQAEIAABCEAAAhCAwPwJIAbm7yMshAAEIAABCEAAAhCAwCQEEAOTYKVQCEAAAhCAAAQgAAEIzJ8AYmD+PsJCCEAAAhCAAAQgAAEITEIAMTAJVgqFAAQgAAEIQAACEIDA/AkgBubvIyyEAAQgAAEIQAACEIDAJAQQA5NgpVAIQAACEIAABCAAAQjMnwBiYP4+wkIIQAACEIAABCAAAQhMQgAxMAlWCoUABCAAAQhAAAIQgMD8CSAG5u8jLIQABCAAAQhAAAIQgMAkBBADk2ClUAhAAAIQgAAEIAABCMyfAGJg/j7CQghAAAIQgAAEIAABCExCADEwCVYKhQAEIAABCEAAAhCAwPwJIAbm7yMshAAEIAABCEAAAhCAwCQEEAOTYKVQCEAAAhCAAAQgAAEIzJ8AYmD+PsJCCEAAAhCAAAQgAAEITEIAMTAJ1mkKvV4/MC82Z+bH/aVZqau4NqcPXpjNqx/m7q3+LXXxO37QZTCMyRaN/n5uHj25Mqv3v8zNX1ssl6LSBCZgv+/+tO/609B5AgIQgAAEDo0AYmBBHh0WKCAGJnXxBAHppPYeUuFbZ78x5yePzdXPtfn468b8uQdWw8b4HgylSghAAAIQOBgCiIEFuXJYoIAYmNTFWw9IJ7X2sAo/QPbDxvhhuZXWQAACEIDAbgkgBnbLW1FbHry/Nqtvd+byt+7j+kAhL+OjeVGsbsbEQLiusuZypXTzTyAF5sOpefD3Kpm2dL0+NeZWWGnNgrnT9/8xN0760ubikXn873OxXH2aUKptVQsvTs1/X954rF1H5fW+/k1IteoTkBbPbsyb4KpzwuaM96Nvl1tK99LxMbnNF7+bu1t7nTx79+SLuQymqyX6TWAUbAK+KPrD9zfmV8eGrJAI++A7dt0Zz1Nzo07vivXLTpNEZvYTYT76Ma6YSngEAhCAAAQgoCCAGFBA2sUjRaDx7t6p6sScWaIgHSjUaQ5WMQ9PzMnPrNzOmYFSINx2ahPq+myXU59VEOrIH3ton2Uon/m0Whvz+dYUrar/PRcQL41ZP7s1t1X56yrfvmifXWdRfTdlIyUG1ByzcteZbSWDcFqIZNOJzVIjBqpnut616xSYPvvYBr8Fs6631s/WBb8mnUW0oyp3ZZVVicOk7zt8yn6wfv/DrP7O02jaftFhIdhZvhc+T1HwDfhC9KXNxWuz1K8zA+x3sv8b86k0xtL9UujvFaJO2xV80mN8F7MRdUAAAhCAwDERQAzM1tv+in4yUCiCjY0vILKg0Q7aggFPczi5rNtoD8V69bbBrRcI1gFRRzxkTqj+3n2+Cu6sYC4lBnx3Bjg6TMRuIPAs7bQYJ8WAFJA7fyvK+GSeC7tB9e7MlR3QN+LCEhRKMZD2fRsst33GEiuuLz7H8uultndJ14F2R1Tkj0jtcf+WZJ/RK0T2qhVNgX52fvHUXGY7VB4fVb+U+nv1NxM78O/zSY7x2c5XGAYBCEAAAkslgBiYref6BwpyIOEGw4FAv1qxL1aa62DTWVENovKCskgQKAXY9WqtcFNSGSy2AWd/MdCfY93OctXaXlXP/8XhlwpIA4F+J+WkCji9gDgUFGd/94JclRhQ+D7gC6++3Da7zwQ6Ryq4Df27nJJTrcD/UaVrpdg3NrbiTWyHZbu2f3X7pdzfU3UVvcm5ISzFa7bTFYZBAAIQgMBiCSAG5uQ6KY0gsireNT0UgDtiQExZqUuyUoVsWwRRIKVOtKv6fcVA+Hk3oFIFT6M41iwC6VDVPzeBeyogDaSGlMW0IsdOifFTb7q7Pfmbg8SA0vdSQKoWA1Id7i5QJPjuCDEvZaz617o/xgTQT3t0tP06FWx3/13bL3uIgQSflH1zmq6wBQIQgAAEDoMAYmAmfqyDwVhAHQ8U+okB9b34TTBbB67C9Yujdwa0QVd6JXU8R0cMdPLthc6iEgN+MB/qdo0o6Jyx2K4YSPl+sBgQdjhSwW3o31PvFfxCZwZs8eHsRKXKnVQMKPik7JvJdIUZEIAABCBwQAQQA7NwpiKvPLMzFSiI/14FTO0B4gFXjdpB11PhR7ZGi4FQ2/y86/jOwHY4dlanUz/ylhIDqX+X+p8dwBr5R83c9Cn5Zh33zIXO90PFgPTeoD4r7XxInFy2ijMeqdQd1c5TdcvWVXMeQLczoOGT4jWL6QojIAABCEDgoAggBmbhTj/obVaI1WlCWUPclUcrJcE7QPy5e3tQcVD14mt2iDK7QtK9wlIITltxETk8Ka2qB84M1LbbN7/4q/ypnYEtcaz7RCCXf3Nxbr6+vSx/lCoZ7As7KUX51xnv8tBq3s7zJ3fNFZfdgNV/v03Rsg/vVoF/sypu3azjHfqN+D4gOjVpQp5ACR0Wt8ZcMPgNnVv5cG7On16WV8GKYuDWur2oZmC1Vyg3t6G+Ntazp26DxVCz+5Q3UUxxsw9cC3xC9YvnSWYxd2EEBCAAAQgsnQBiYC4edHOJs6DubHVlrqwDrJpVQ/c6xvo6yE/1ocuqvVLOf3P9p5DXbAcjbh0nr87M6t2VdftQ3zMDlVFCfr17G1Fy5XZLHJtuIeb8+8FlPPUmcP6gDjCT7XauzMz6xsc/PpkX9i05ucFOObnP3nx/7B2Cjvp+hBioD1e315auzdmrjbkK/GZEIYmcA7Sd4Rg449D0CUGIuW1bZ31z8865qcnjHT6gXtiT9I9uZ0DDBzEwlwkZOyAAAQgcDwHEwPH4mpYeEIFUussBNZWmQAACEIAABCAwIQHEwIRwKRoCUxFADExFlnIhAAEIQAACx0UAMXBc/qa1B0IAMXAgjqQZEIAABCAAgT0TQAzs2QFUDwEIQAACEIAABCAAgX0RQAzsizz1QgACEIAABCAAAQhAYM8EEAN7dgDVQwACEIAABCAAAQhAYF8EEAP7Ik+9EIAABCAAAQhAAAIQ2DMBxMCeHUD1EIAABCAAAQhAAAIQ2BcBxMC+yFMvBCAAAQhAAAIQgAAE9kwAMbBnB1A9BCAAAQhAAAIQgAAE9kUAMbAv8tQLAQhAAAIQgAAEIACBPRNADOzZAVQPAQhAAAIQgAAEIACBfRFADOyLPPVCAAIQgAAEIAABCEBgzwQQA3t2ANVDAAIQgAAEIAABCEBgXwQQA/siT70QgAAEIAABCEAAAhDYMwHEwJ4dQPUQgAAEIAABCEAAAhDYFwHEwL7IUy8EIAABCEAAAhCAAAT2TAAxsGcHUD0EIAABCEAAAhCAAAT2RQAxsC/y1AsBCEAAAhCAAAQgAIE9E0AM7NkBVA8BCEAAAhCAAAQg8P+3X8c0AAAADML8u0YGTxUs6S4IXAJi4JK3S4AAAQIECBAgQGAWEAPzAeYJECBAgAABAgQIXAJi4JK3S4AAAQIECBAgQGAWEAPzAeYJECBAgAABAgQIXAJi4JK3S4AAAQIECBAgQGAWEAPzAeYJECBAgAABAgQIXAJi4JK3S4AAAQIECBAgQGAWEAPzAeYJECBAgAABAgQIXAJi4JK3S4AAAQIECBAgQGAWEAPzAeYJECBAgAABAgQIXAJi4JK3S4AAAQIECBAgQGAWEAPzAeYJECBAgAABAgQIXAJi4JK3S4AAAQIECBAgQGAWEAPzAeYJECBAgAABAgQIXAJi4JK3S4AAAQIECBAgQGAWEAPzAeYJECBAgAABAgQIXAJi4JK3S4AAAQIECBAgQGAWEAPzAeYJECBAgAABAgQIXAJi4JK3S4AAAQIECBAgQGAWEAPzAeYJECBAgC26TcgAAACgSURBVAABAgQIXAJi4JK3S4AAAQIECBAgQGAWEAPzAeYJECBAgAABAgQIXAJi4JK3S4AAAQIECBAgQGAWEAPzAeYJECBAgAABAgQIXAJi4JK3S4AAAQIECBAgQGAWEAPzAeYJECBAgAABAgQIXAJi4JK3S4AAAQIECBAgQGAWEAPzAeYJECBAgAABAgQIXAJi4JK3S4AAAQIECBAgQGAWCNOiZry4BGmRAAAAAElFTkSuQmCC;" vertex="1" parent="1">
          <mxGeometry x="-455" y="-584" width="579.82" height="370" as="geometry" />
        </mxCell>
        <mxCell id="M22sSa8-nU_xc1yX0LfK-37" style="edgeStyle=none;curved=1;rounded=0;orthogonalLoop=1;jettySize=auto;html=1;exitX=1;exitY=0.5;exitDx=0;exitDy=0;entryX=0;entryY=0.5;entryDx=0;entryDy=0;fontSize=12;startSize=8;endSize=8;" parent="1" source="M22sSa8-nU_xc1yX0LfK-7" target="M22sSa8-nU_xc1yX0LfK-20" edge="1">
          <mxGeometry relative="1" as="geometry" />
        </mxCell>
        <mxCell id="M22sSa8-nU_xc1yX0LfK-38" value="" style="endArrow=classic;startArrow=classic;html=1;rounded=0;fontSize=12;startSize=8;endSize=8;curved=1;exitX=1;exitY=0.5;exitDx=0;exitDy=0;entryX=0;entryY=0.5;entryDx=0;entryDy=0;" parent="1" source="M22sSa8-nU_xc1yX0LfK-7" target="M22sSa8-nU_xc1yX0LfK-20" edge="1">
          <mxGeometry width="50" height="50" relative="1" as="geometry">
            <mxPoint x="319" y="-150" as="sourcePoint" />
            <mxPoint x="369" y="-200" as="targetPoint" />
          </mxGeometry>
        </mxCell>
        <mxCell id="M22sSa8-nU_xc1yX0LfK-7" value="ESTUDIANTE" style="rounded=0;whiteSpace=wrap;html=1;" parent="1" vertex="1">
          <mxGeometry x="-258" y="-128" width="212" height="141" as="geometry" />
        </mxCell>
        <mxCell id="M22sSa8-nU_xc1yX0LfK-14" value="" style="endArrow=none;html=1;rounded=0;fontSize=12;startSize=8;endSize=8;curved=1;exitX=1;exitY=0.5;exitDx=0;exitDy=0;entryX=0;entryY=0.25;entryDx=0;entryDy=0;" parent="1" source="Vbakuehs30_94PQ9UM7p-8" target="M22sSa8-nU_xc1yX0LfK-7" edge="1">
          <mxGeometry width="50" height="50" relative="1" as="geometry">
            <mxPoint x="-307" y="-112.19827586206907" as="sourcePoint" />
            <mxPoint x="-231" y="-165" as="targetPoint" />
          </mxGeometry>
        </mxCell>
        <mxCell id="M22sSa8-nU_xc1yX0LfK-15" value="" style="endArrow=none;html=1;rounded=0;fontSize=12;startSize=8;endSize=8;curved=1;exitX=1;exitY=0.5;exitDx=0;exitDy=0;entryX=0;entryY=0.426;entryDx=0;entryDy=0;entryPerimeter=0;" parent="1" source="Vbakuehs30_94PQ9UM7p-9" target="M22sSa8-nU_xc1yX0LfK-7" edge="1">
          <mxGeometry width="50" height="50" relative="1" as="geometry">
            <mxPoint x="-307" y="-75.73275862068976" as="sourcePoint" />
            <mxPoint x="-248" y="-83" as="targetPoint" />
          </mxGeometry>
        </mxCell>
        <mxCell id="M22sSa8-nU_xc1yX0LfK-16" value="" style="endArrow=none;html=1;rounded=0;fontSize=12;startSize=8;endSize=8;curved=1;exitX=1;exitY=0.5;exitDx=0;exitDy=0;entryX=-0.002;entryY=0.592;entryDx=0;entryDy=0;entryPerimeter=0;" parent="1" source="Vbakuehs30_94PQ9UM7p-10" target="M22sSa8-nU_xc1yX0LfK-7" edge="1">
          <mxGeometry width="50" height="50" relative="1" as="geometry">
            <mxPoint x="-307" y="-39.034999999999854" as="sourcePoint" />
            <mxPoint x="-248" y="-58" as="targetPoint" />
          </mxGeometry>
        </mxCell>
        <mxCell id="M22sSa8-nU_xc1yX0LfK-17" value="" style="endArrow=none;html=1;rounded=0;fontSize=12;startSize=8;endSize=8;curved=1;exitX=1;exitY=0.5;exitDx=0;exitDy=0;entryX=0;entryY=0.75;entryDx=0;entryDy=0;" parent="1" source="Vbakuehs30_94PQ9UM7p-11" target="M22sSa8-nU_xc1yX0LfK-7" edge="1">
          <mxGeometry width="50" height="50" relative="1" as="geometry">
            <mxPoint x="-307" y="-2.8017241379309326" as="sourcePoint" />
            <mxPoint x="-125" y="-56" as="targetPoint" />
          </mxGeometry>
        </mxCell>
        <mxCell id="M22sSa8-nU_xc1yX0LfK-47" value="&lt;i&gt;(M,N)&lt;/i&gt;" style="text;html=1;align=center;verticalAlign=middle;whiteSpace=wrap;rounded=0;" parent="1" vertex="1">
          <mxGeometry x="-39" y="-89" width="60" height="30" as="geometry" />
        </mxCell>
        <mxCell id="M22sSa8-nU_xc1yX0LfK-48" value="&lt;i&gt;(1,N)&lt;/i&gt;" style="text;html=1;align=center;verticalAlign=middle;whiteSpace=wrap;rounded=0;" parent="1" vertex="1">
          <mxGeometry x="411" y="-89" width="60" height="30" as="geometry" />
        </mxCell>
        <mxCell id="Vbakuehs30_94PQ9UM7p-8" value="&lt;u&gt;dni&lt;/u&gt;" style="ellipse;whiteSpace=wrap;html=1;" vertex="1" parent="1">
          <mxGeometry x="-385" y="-131" width="78" height="34" as="geometry" />
        </mxCell>
        <mxCell id="Vbakuehs30_94PQ9UM7p-9" value="nombre" style="ellipse;whiteSpace=wrap;html=1;" vertex="1" parent="1">
          <mxGeometry x="-385" y="-93" width="78" height="34" as="geometry" />
        </mxCell>
        <mxCell id="Vbakuehs30_94PQ9UM7p-10" value="edad" style="ellipse;whiteSpace=wrap;html=1;" vertex="1" parent="1">
          <mxGeometry x="-385" y="-55" width="78" height="34" as="geometry" />
        </mxCell>
        <mxCell id="Vbakuehs30_94PQ9UM7p-11" value="promedio" style="ellipse;whiteSpace=wrap;html=1;" vertex="1" parent="1">
          <mxGeometry x="-385" y="-17" width="78" height="34" as="geometry" />
        </mxCell>
        <mxCell id="Vbakuehs30_94PQ9UM7p-34" style="edgeStyle=orthogonalEdgeStyle;rounded=0;orthogonalLoop=1;jettySize=auto;html=1;entryX=0.5;entryY=0;entryDx=0;entryDy=0;" edge="1" parent="1" source="Vbakuehs30_94PQ9UM7p-25" target="M22sSa8-nU_xc1yX0LfK-20">
          <mxGeometry relative="1" as="geometry" />
        </mxCell>
        <mxCell id="Vbakuehs30_94PQ9UM7p-25" value="CENTRO EDUCATIVO" style="rounded=0;whiteSpace=wrap;html=1;" vertex="1" parent="1">
          <mxGeometry x="477" y="-395" width="221" height="125" as="geometry" />
        </mxCell>
        <mxCell id="Vbakuehs30_94PQ9UM7p-26" value="&lt;u&gt;cod_centro&lt;/u&gt;" style="rounded=1;whiteSpace=wrap;html=1;arcSize=50;" vertex="1" parent="1">
          <mxGeometry x="350" y="-395" width="93" height="30" as="geometry" />
        </mxCell>
        <mxCell id="Vbakuehs30_94PQ9UM7p-27" value="nombre" style="rounded=1;whiteSpace=wrap;html=1;arcSize=50;" vertex="1" parent="1">
          <mxGeometry x="350" y="-347.5" width="93" height="30" as="geometry" />
        </mxCell>
        <mxCell id="Vbakuehs30_94PQ9UM7p-28" value="direccion" style="rounded=1;whiteSpace=wrap;html=1;arcSize=50;" vertex="1" parent="1">
          <mxGeometry x="350" y="-300" width="93" height="30" as="geometry" />
        </mxCell>
        <mxCell id="Vbakuehs30_94PQ9UM7p-29" value="" style="endArrow=none;html=1;rounded=0;exitX=1;exitY=0.5;exitDx=0;exitDy=0;entryX=0;entryY=0.75;entryDx=0;entryDy=0;" edge="1" parent="1" source="Vbakuehs30_94PQ9UM7p-28" target="Vbakuehs30_94PQ9UM7p-25">
          <mxGeometry width="50" height="50" relative="1" as="geometry">
            <mxPoint x="605" y="-213" as="sourcePoint" />
            <mxPoint x="655" y="-263" as="targetPoint" />
          </mxGeometry>
        </mxCell>
        <mxCell id="Vbakuehs30_94PQ9UM7p-30" value="" style="endArrow=none;html=1;rounded=0;exitX=1;exitY=0.5;exitDx=0;exitDy=0;entryX=0;entryY=0.5;entryDx=0;entryDy=0;" edge="1" parent="1" source="Vbakuehs30_94PQ9UM7p-27" target="Vbakuehs30_94PQ9UM7p-25">
          <mxGeometry width="50" height="50" relative="1" as="geometry">
            <mxPoint x="605" y="-213" as="sourcePoint" />
            <mxPoint x="655" y="-263" as="targetPoint" />
          </mxGeometry>
        </mxCell>
        <mxCell id="Vbakuehs30_94PQ9UM7p-31" value="" style="endArrow=none;html=1;rounded=0;entryX=0;entryY=0.25;entryDx=0;entryDy=0;exitX=1;exitY=0.5;exitDx=0;exitDy=0;" edge="1" parent="1" source="Vbakuehs30_94PQ9UM7p-26" target="Vbakuehs30_94PQ9UM7p-25">
          <mxGeometry width="50" height="50" relative="1" as="geometry">
            <mxPoint x="605" y="-213" as="sourcePoint" />
            <mxPoint x="655" y="-263" as="targetPoint" />
          </mxGeometry>
        </mxCell>
        <mxCell id="Vbakuehs30_94PQ9UM7p-32" value="" style="group" vertex="1" connectable="0" parent="1">
          <mxGeometry x="482" y="-131" width="350" height="160" as="geometry" />
        </mxCell>
        <mxCell id="M22sSa8-nU_xc1yX0LfK-13" value="" style="endArrow=none;html=1;rounded=0;fontSize=12;startSize=8;endSize=8;curved=1;entryX=0;entryY=0.5;entryDx=0;entryDy=0;exitX=1;exitY=0.23;exitDx=0;exitDy=0;exitPerimeter=0;" parent="Vbakuehs30_94PQ9UM7p-32" source="M22sSa8-nU_xc1yX0LfK-20" target="Vbakuehs30_94PQ9UM7p-14" edge="1">
          <mxGeometry width="50" height="50" relative="1" as="geometry">
            <mxPoint x="212" y="35.45" as="sourcePoint" />
            <mxPoint x="260" y="34.001724137930935" as="targetPoint" />
          </mxGeometry>
        </mxCell>
        <mxCell id="M22sSa8-nU_xc1yX0LfK-20" value="ASIGNATURA" style="rounded=0;whiteSpace=wrap;html=1;container=0;" parent="Vbakuehs30_94PQ9UM7p-32" vertex="1">
          <mxGeometry y="3" width="212" height="141" as="geometry" />
        </mxCell>
        <mxCell id="M22sSa8-nU_xc1yX0LfK-32" value="" style="endArrow=none;html=1;rounded=0;fontSize=12;startSize=8;endSize=8;curved=1;entryX=0;entryY=0.5;entryDx=0;entryDy=0;exitX=0.996;exitY=0.849;exitDx=0;exitDy=0;exitPerimeter=0;" parent="Vbakuehs30_94PQ9UM7p-32" source="M22sSa8-nU_xc1yX0LfK-20" target="Vbakuehs30_94PQ9UM7p-20" edge="1">
          <mxGeometry width="50" height="50" relative="1" as="geometry">
            <mxPoint x="212" y="123" as="sourcePoint" />
            <mxPoint x="260" y="124.21499999999992" as="targetPoint" />
          </mxGeometry>
        </mxCell>
        <mxCell id="M22sSa8-nU_xc1yX0LfK-33" value="" style="endArrow=none;html=1;rounded=0;fontSize=12;startSize=8;endSize=8;curved=1;entryX=0;entryY=0.5;entryDx=0;entryDy=0;exitX=0.999;exitY=0.664;exitDx=0;exitDy=0;exitPerimeter=0;" parent="Vbakuehs30_94PQ9UM7p-32" source="M22sSa8-nU_xc1yX0LfK-20" target="Vbakuehs30_94PQ9UM7p-19" edge="1">
          <mxGeometry width="50" height="50" relative="1" as="geometry">
            <mxPoint x="212" y="96.23" as="sourcePoint" />
            <mxPoint x="260" y="95.99724137931024" as="targetPoint" />
          </mxGeometry>
        </mxCell>
        <mxCell id="Vbakuehs30_94PQ9UM7p-12" value="" style="endArrow=none;html=1;rounded=0;fontSize=12;startSize=8;endSize=8;curved=1;entryX=0;entryY=0.5;entryDx=0;entryDy=0;exitX=1.002;exitY=0.444;exitDx=0;exitDy=0;exitPerimeter=0;" edge="1" parent="Vbakuehs30_94PQ9UM7p-32" source="M22sSa8-nU_xc1yX0LfK-20" target="Vbakuehs30_94PQ9UM7p-17">
          <mxGeometry width="50" height="50" relative="1" as="geometry">
            <mxPoint x="213" y="65" as="sourcePoint" />
            <mxPoint x="260" y="64.00172413793092" as="targetPoint" />
          </mxGeometry>
        </mxCell>
        <mxCell id="Vbakuehs30_94PQ9UM7p-21" value="" style="group" vertex="1" connectable="0" parent="Vbakuehs30_94PQ9UM7p-32">
          <mxGeometry x="270" width="80" height="160" as="geometry" />
        </mxCell>
        <mxCell id="Vbakuehs30_94PQ9UM7p-14" value="&lt;u&gt;cod_asig&lt;/u&gt;" style="ellipse;whiteSpace=wrap;html=1;" vertex="1" parent="Vbakuehs30_94PQ9UM7p-21">
          <mxGeometry width="80" height="30" as="geometry" />
        </mxCell>
        <mxCell id="Vbakuehs30_94PQ9UM7p-17" value="descripcion" style="ellipse;whiteSpace=wrap;html=1;" vertex="1" parent="Vbakuehs30_94PQ9UM7p-21">
          <mxGeometry y="40" width="80" height="30" as="geometry" />
        </mxCell>
        <mxCell id="Vbakuehs30_94PQ9UM7p-19" value="profesor" style="ellipse;whiteSpace=wrap;html=1;" vertex="1" parent="Vbakuehs30_94PQ9UM7p-21">
          <mxGeometry y="80" width="80" height="30" as="geometry" />
        </mxCell>
        <mxCell id="Vbakuehs30_94PQ9UM7p-20" value="centro" style="ellipse;whiteSpace=wrap;html=1;" vertex="1" parent="Vbakuehs30_94PQ9UM7p-21">
          <mxGeometry y="120" width="80" height="30" as="geometry" />
        </mxCell>
        <mxCell id="Vbakuehs30_94PQ9UM7p-33" value="" style="group" vertex="1" connectable="0" parent="1">
          <mxGeometry x="113" y="-123.5" width="249" height="315.5" as="geometry" />
        </mxCell>
        <mxCell id="M22sSa8-nU_xc1yX0LfK-35" value="EXAMEN" style="rhombus;whiteSpace=wrap;html=1;" parent="Vbakuehs30_94PQ9UM7p-33" vertex="1">
          <mxGeometry x="35" width="188" height="132" as="geometry" />
        </mxCell>
        <mxCell id="M22sSa8-nU_xc1yX0LfK-41" value="" style="endArrow=none;html=1;rounded=0;fontSize=12;startSize=8;endSize=8;curved=1;entryX=0;entryY=1;entryDx=0;entryDy=0;exitX=0.5;exitY=0;exitDx=0;exitDy=0;" parent="Vbakuehs30_94PQ9UM7p-33" source="M22sSa8-nU_xc1yX0LfK-44" target="M22sSa8-nU_xc1yX0LfK-35" edge="1">
          <mxGeometry width="50" height="50" relative="1" as="geometry">
            <mxPoint x="44" y="210.5" as="sourcePoint" />
            <mxPoint x="226" y="-38.5" as="targetPoint" />
          </mxGeometry>
        </mxCell>
        <mxCell id="M22sSa8-nU_xc1yX0LfK-43" value="" style="endArrow=none;html=1;rounded=0;fontSize=12;startSize=8;endSize=8;curved=1;entryX=1;entryY=1;entryDx=0;entryDy=0;exitX=0.5;exitY=0;exitDx=0;exitDy=0;" parent="Vbakuehs30_94PQ9UM7p-33" source="M22sSa8-nU_xc1yX0LfK-45" target="M22sSa8-nU_xc1yX0LfK-35" edge="1">
          <mxGeometry width="50" height="50" relative="1" as="geometry">
            <mxPoint x="208" y="211.5" as="sourcePoint" />
            <mxPoint x="92" y="109.5" as="targetPoint" />
          </mxGeometry>
        </mxCell>
        <mxCell id="M22sSa8-nU_xc1yX0LfK-44" value="asignatura" style="rounded=1;whiteSpace=wrap;html=1;container=0;arcSize=50;" parent="Vbakuehs30_94PQ9UM7p-33" vertex="1">
          <mxGeometry y="216.5" width="83" height="32.07" as="geometry" />
        </mxCell>
        <mxCell id="M22sSa8-nU_xc1yX0LfK-45" value="estudiante" style="rounded=1;whiteSpace=wrap;html=1;container=0;arcSize=50;" parent="Vbakuehs30_94PQ9UM7p-33" vertex="1">
          <mxGeometry x="166" y="216.5" width="83" height="32.07" as="geometry" />
        </mxCell>
        <mxCell id="Vbakuehs30_94PQ9UM7p-23" value="" style="endArrow=none;html=1;rounded=0;exitX=0.5;exitY=1;exitDx=0;exitDy=0;entryX=0.5;entryY=0;entryDx=0;entryDy=0;" edge="1" parent="Vbakuehs30_94PQ9UM7p-33" source="M22sSa8-nU_xc1yX0LfK-35" target="Vbakuehs30_94PQ9UM7p-24">
          <mxGeometry width="50" height="50" relative="1" as="geometry">
            <mxPoint x="140" y="120.5" as="sourcePoint" />
            <mxPoint x="129" y="272.5" as="targetPoint" />
          </mxGeometry>
        </mxCell>
        <mxCell id="Vbakuehs30_94PQ9UM7p-24" value="fecha_examen" style="rounded=1;whiteSpace=wrap;html=1;container=0;arcSize=50;" vertex="1" parent="Vbakuehs30_94PQ9UM7p-33">
          <mxGeometry x="82.41999999999999" y="279.5" width="93.17" height="36" as="geometry" />
        </mxCell>
        <mxCell id="Vbakuehs30_94PQ9UM7p-35" value="&lt;i&gt;(M,N)&lt;/i&gt;" style="text;html=1;align=center;verticalAlign=middle;whiteSpace=wrap;rounded=0;" vertex="1" parent="1">
          <mxGeometry x="587" y="-270" width="60" height="30" as="geometry" />
        </mxCell>
        <mxCell id="Vbakuehs30_94PQ9UM7p-36" value="&lt;i&gt;(1,N)&lt;/i&gt;" style="text;html=1;align=center;verticalAlign=middle;whiteSpace=wrap;rounded=0;" vertex="1" parent="1">
          <mxGeometry x="587" y="-158" width="60" height="30" as="geometry" />
        </mxCell>
      </root>
    </mxGraphModel>
  </diagram>
</mxfile>
